<svg id="Capa_1" enable-background="new 0 0 512.002 512.002" height="512" viewBox="0 0 512.002 512.002" width="512" xmlns="http://www.w3.org/2000/svg"><g><g><g><path d="m80.067 310.502h325.033v56.667h-325.033z" fill="#f3f5f9"/><path d="m382.101 310.502h23v56.667h-23z" fill="#cfd7e6"/><path d="m123.467 399.502h289.917v-10.967c4.575 0 8.283-3.708 8.283-8.283v-16.567c0-4.575-3.709-8.283-8.283-8.283h-289.917l-14.15 18.85 14.15 14.283z" fill="#8db5ff"/><path d="m156.601 316.502v63.733c0 7.38 8.922 11.075 14.14 5.857l13.136-13.136c3.235-3.235 8.48-3.235 11.714 0l13.136 13.136c5.218 5.218 14.141 1.522 14.141-5.857v-63.733z" fill="#f25a3c"/><path d="m413.384 355.402h-23c4.575 0 8.283 3.709 8.283 8.283v16.567c0 4.575-3.709 8.283-8.283 8.283h23c4.575 0 8.283-3.709 8.283-8.283v-16.567c0-4.575-3.708-8.283-8.283-8.283z" fill="#7784ff"/><path d="m199.929 316.502v60.793l8.798 8.798c5.218 5.218 14.141 1.522 14.141-5.857v-63.733h-22.939z" fill="#e63a3a"/><path d="m123.467 322.268h289.917c4.575 0 8.283-3.709 8.283-8.283v-16.567c0-4.575-3.709-8.283-8.283-8.283h-289.917l-14.15 16.567z" fill="#8db5ff"/><path d="m123.467 388.535v-33.133h-24.85c-4.575 0-8.283-3.708-8.283-8.283v-16.567c0-4.575 3.709-8.283 8.283-8.283h24.85v-33.133h-33.056c-18.341 0-33.21 14.869-33.21 33.21v32.98c0 18.341 14.869 33.21 33.21 33.21h33.056z" fill="#ffdf40"/><path d="m413.384 289.135h-23c4.575 0 8.283 3.709 8.283 8.283v16.567c0 4.575-3.709 8.283-8.283 8.283h23c4.575 0 8.283-3.709 8.283-8.283v-16.567c0-4.575-3.708-8.283-8.283-8.283z" fill="#7784ff"/></g><g><path d="m40.634 410.102v11.567c13.724 0 24.85 11.126 24.85 24.85s-11.126 24.85-24.85 24.85v11.567h419.3v-72.833h-419.3z" fill="#e9efff"/><path d="m405.101 388.535h23.97c31.82 0 58.372 25.268 58.857 57.084.493 32.383-25.705 58.883-57.977 58.883h-24.85l-8.667-16.567 8.667-16.567h24.285c13.902 0 25.646-11.376 25.411-25.276-.228-13.507-11.286-24.424-24.846-24.424h-24.85l-7.667-16.567z" fill="#ffdf40"/><path d="m429.071 388.535h-22.992c31.82 0 58.372 25.268 58.857 57.084.493 32.383-25.705 58.883-57.977 58.883h22.992c32.271 0 58.47-26.5 57.977-58.883-.486-31.816-27.038-57.084-58.857-57.084z" fill="#ffbe40"/><g><g><g><path d="m405.101 471.368h-372.75c-4.575 0-8.283 3.709-8.283 8.283v16.567c0 4.575 3.709 8.283 8.283 8.283h372.75z" fill="#68d9c0"/></g><g><path d="m24.067 413.385c0 4.575 3.709 8.283 8.283 8.283h372.75v-33.133h-372.749c-4.575 0-8.283 3.709-8.283 8.283v16.567z" fill="#68d9c0"/></g></g></g></g><path d="m186.364 65.08c-27.847 13.84-47.051 44.369-46.309 79.138.335 15.695 4.658 30.339 11.929 42.825 6.667 11.449 10.15 24.761 9.818 38.234-.017.667-.025 1.337-.025 2.009 0 34.158 21.093 61.849 47.111 61.849 8.045 0 15.616-2.652 22.239-7.323 7.397-5.216 16.006-8.139 24.873-8.139 8.867 0 17.476 2.922 24.873 8.139 6.623 4.671 14.194 7.323 22.239 7.323 26.019 0 47.112-27.691 47.112-61.849 0-.672-.008-1.342-.025-2.009-.332-13.473 3.151-26.785 9.818-38.234 7.271-12.487 11.594-27.13 11.929-42.825 1.01-47.285-34.875-86.73-79.215-87.015-3.705-.024-7.352.222-10.924.72-2.514.351-5.033.65-7.553.897z" fill="#f25a3c"/><path d="m292.732 57.203c-3.705-.024-7.352.222-10.924.72-.397.056-.794.101-1.191.154 39.175 6.042 69.256 42.794 68.33 86.141-.335 15.695-4.658 30.339-11.929 42.825-6.667 11.449-10.15 24.761-9.818 38.234.016.667.025 1.337.025 2.009 0 28.951-15.154 53.248-35.615 59.986 3.681 1.215 7.534 1.863 11.503 1.863 26.019 0 47.112-27.691 47.112-61.849 0-.672-.008-1.342-.025-2.009-.332-13.473 3.151-26.785 9.818-38.234 7.271-12.487 11.594-27.13 11.929-42.825 1.01-47.285-34.875-86.73-79.215-87.015z" fill="#e63a3a"/><path d="m239.594 69.467c-15.609 6.711-35.404 5.757-52.879-4.183-16.084-9.148-26.629-23.874-29.931-39.295-.876-4.089 1.467-8.209 5.43-9.546 14.942-5.044 32.989-3.508 49.073 5.64 15.273 8.686 25.552 22.403 29.377 36.968h4.213v10.576z" fill="#68d9c0"/><path d="m239.594 69.467c-15.609 6.711-35.404 5.757-52.879-4.183-16.084-9.148-26.629-23.874-29.931-39.295-.876-4.089 1.467-8.209 5.43-9.546 14.942-5.044 32.989-3.508 49.073 5.64 15.273 8.686 25.552 22.403 29.377 36.968h4.213v10.576z" fill="#68d9c0"/><path d="m240.663 59.051c-3.825-14.565-14.104-28.282-29.377-36.968-13.845-7.875-29.141-10.095-42.662-7.347 6.697 1.295 13.402 3.71 19.797 7.347 14.345 8.159 24.284 20.755 28.608 34.323.521 1.635.695 3.36.52 5.067-.534 5.208-4.253 9.596-9.348 10.801-.564.134-1.137.244-1.707.36 11.611 2.25 23.198 1.09 33.101-3.167l5.282.16v-10.576z" fill="#4fc6b9"/><path d="m239.264 104.786c-2.346-40.271 4.849-68.74 11.066-86.27 3.478-9.806 15.042-13.993 24.01-8.716l.011.007c6.819 4.013 9.874 12.289 7.234 19.748-5.038 14.234-11.525 39.063-9.121 75.269z" fill="#b37059"/><path d="m274.352 9.806-.012-.006c-6.668-3.924-14.766-2.608-19.914 2.353 4.593 4.411 6.359 11.186 4.159 17.402-5.037 14.231-11.522 39.051-9.123 75.243l23.002.026c-2.404-36.206 4.083-61.035 9.121-75.269 2.64-7.459-.415-15.736-7.233-19.749z" fill="#995a4d"/></g><path d="m429.128 381.036c.013-.262.04-.52.04-.785v-16.567c0-8.703-7.081-15.783-15.784-15.783h-.784v-18.133h.783c8.703 0 15.784-7.081 15.784-15.783v-16.567c0-8.703-7.081-15.783-15.784-15.783h-76.41c12.628-12.713 20.75-32.343 20.75-54.349 0-.734-.009-1.466-.026-2.193-.297-12.026 2.747-23.878 8.802-34.275 8.118-13.941 12.595-29.999 12.945-46.439.548-25.601-9.156-50.584-26.623-68.543-16.25-16.708-37.573-25.988-60.041-26.132-3.086-.023-6.188.135-9.254.459 1.37-6.246 3.072-12.291 5.13-18.105 3.824-10.807-.592-22.883-10.512-28.721-6.219-3.66-13.672-4.344-20.45-1.876-6.766 2.462-12.026 7.766-14.432 14.548-2.243 6.325-4.161 12.836-5.775 19.507-5.835-7.964-13.492-14.833-22.494-19.952-17.429-9.913-37.539-12.182-55.179-6.227-7.586 2.561-12.042 10.395-10.365 18.223 3.059 14.286 11.267 27.277 23.073 37.005-5.076 3.495-9.815 7.539-14.154 12.117-2.85 3.006-2.723 7.753.284 10.603 1.45 1.375 3.306 2.057 5.158 2.057 1.986 0 3.97-.785 5.444-2.34 5.099-5.379 10.841-9.873 17.099-13.414 10.124 5.092 21.052 7.687 31.745 7.686 4.539 0 9.032-.482 13.405-1.42-.176 4.667-.228 9.39-.145 14.171-1.543-.71-3.058-1.481-4.535-2.326-3.595-2.055-8.177-.806-10.233 2.79s-.806 8.178 2.79 10.233c11.082 6.333 23.723 9.681 36.555 9.681 12.996 0 25.777-3.429 36.962-9.915 3.583-2.078 4.804-6.668 2.725-10.251-2.078-3.583-6.666-4.803-10.251-2.725-1.9 1.102-3.861 2.086-5.867 2.963-.23-9.991.237-19.625 1.382-28.87.652-.084 1.308-.162 1.955-.252 3.238-.452 6.524-.673 9.841-.648 18.42.118 35.958 7.786 49.384 21.59 14.686 15.099 22.843 36.153 22.381 57.764-.297 13.904-4.07 27.462-10.912 39.211-7.453 12.799-11.199 27.389-10.835 42.195.016.605.022 1.213.022 1.822 0 29.968-17.77 54.349-39.611 54.349-6.287 0-12.315-2.002-17.916-5.953-8.822-6.221-18.918-9.51-29.195-9.51s-20.374 3.289-29.195 9.51c-5.601 3.95-11.628 5.952-17.916 5.952-21.842 0-39.611-24.381-39.611-54.349 0-.609.007-1.217.023-1.824.364-14.804-3.382-29.394-10.835-42.193-6.842-11.748-10.615-25.307-10.912-39.21-.254-11.901 1.981-23.401 6.645-34.18 1.646-3.802-.102-8.217-3.904-9.862-3.805-1.646-8.217.104-9.861 3.905-5.527 12.773-8.177 26.384-7.876 40.457.351 16.44 4.827 32.498 12.945 46.438 6.055 10.397 9.099 22.25 8.802 34.274-.018.729-.026 1.461-.026 2.195 0 22.006 8.123 41.636 20.751 54.349h-84.696c-22.405 0-40.633 18.228-40.633 40.633v33.133c0 9.712 3.429 18.635 9.134 25.633h-26.485c-8.703 0-15.783 7.081-15.783 15.784v16.566c0 8.703 7.08 15.783 15.783 15.783h8.283c9.567 0 17.351 7.783 17.351 17.35s-7.783 17.35-17.351 17.35h-8.283c-8.703 0-15.783 7.08-15.783 15.783v16.567c0 8.703 7.08 15.783 15.783 15.783h53.4c4.143 0 7.5-3.358 7.5-7.5s-3.357-7.5-7.5-7.5h-53.4c-.432 0-.783-.352-.783-.783v-16.567c0-.432.352-.783.783-.783h332.117v18.133h-248.5c-4.143 0-7.5 3.358-7.5 7.5s3.357 7.5 7.5 7.5h313.983c17.655 0 34.219-6.945 46.639-19.556 12.416-12.606 19.106-29.277 18.837-46.941-.541-35.529-30.278-64.436-66.298-64.467zm-238.705-322.272c-13.714-7.8-23.302-20.318-26.305-34.346-.078-.361.143-.751.495-.87 4.915-1.659 10.099-2.478 15.365-2.478 9.296 0 18.846 2.551 27.6 7.53 12.592 7.162 21.824 18.513 25.513 31.266-.171 1.394-.341 2.789-.487 4.195-13.271 4.232-28.72 2.36-42.181-5.297zm65.513 40.637c-3.178 0-6.34-.258-9.455-.764-1.027-28.189 2.639-54.274 10.918-77.615.904-2.548 2.882-4.541 5.426-5.467 2.555-.932 5.366-.672 7.723.714 3.732 2.197 5.401 6.731 3.968 10.781-7.598 21.463-10.906 45.557-9.872 71.696-2.873.43-5.783.655-8.708.655zm158.232 264.284v16.567c0 .432-.352.783-.784.783h-183.047c.013-.266.03-.531.03-.8v-17.333h183.017c.432-.001.784.351.784.783zm-34.7 50.483v-18.133h18.132v18.133zm-230.368-84.4v18.133h-42.2c-4.999 0-9.066-4.067-9.066-9.066s4.067-9.067 9.066-9.067zm66.267 0v50.467c0 .196 0 .523-.483.724-.119.049-.221.071-.312.076h-.019c-.268.007-.421-.144-.523-.246l-13.136-13.136c-2.982-2.981-6.944-4.623-11.16-4.623-4.217 0-8.181 1.642-11.161 4.623l-13.136 13.136c-.101.102-.255.252-.521.246h-.021c-.09-.005-.193-.027-.311-.076-.483-.2-.483-.528-.483-.724v-50.467zm-66.267 33.133v17.333c0 .269.017.534.03.8h-18.163v-18.133zm40.08 15.358c.304-.303.804-.304 1.107 0l2.775 2.775h-6.658zm208.42-30.358h-167.233v-18.133h167.233zm-141.599-66.729c1.837 0 3.67.159 5.486.462h-10.972c1.816-.303 3.649-.462 5.486-.462zm157.383 15.463c.433 0 .784.352.784.783v16.567c0 .432-.352.783-.784.783h-282.416v-18.133zm-348.683 58.766v-33.133c0-14.134 11.499-25.633 25.633-25.633h25.634v18.133h-9.068c-13.271 0-24.066 10.796-24.066 24.067 0 13.27 10.796 24.066 24.066 24.066h9.067v18.133h-25.633c-14.134.001-25.633-11.498-25.633-25.633zm-33.134 57.984v-16.566c0-.432.352-.784.783-.784h332.117v18.133h-332.117c-.431 0-.783-.352-.783-.783zm36.35 15.783h362.034c9.406 0 17.188 7.649 17.348 17.051.076 4.518-1.691 8.847-4.976 12.188-3.413 3.471-8.129 5.462-12.938 5.462h-361.468c3.203-5.018 5.068-10.969 5.068-17.35s-1.866-12.333-5.068-17.351zm311.551 49.7h18.132v18.133h-18.133v-18.133zm86.434 3.052c-9.578 9.725-22.346 15.081-35.951 15.081h-17.351v-18.133h16.785c8.805 0 17.418-3.625 23.633-9.945 6.128-6.232 9.423-14.385 9.278-22.958-.297-17.533-14.807-31.797-32.346-31.797h-17.35v-18.133h.783 15.688c27.9 0 50.94 22.294 51.357 49.698.208 13.614-4.951 26.466-14.526 36.187z"/></g></svg>