<svg id="Capa_1" enable-background="new 0 0 512 512" height="512" viewBox="0 0 512 512" width="512" xmlns="http://www.w3.org/2000/svg"><path d="m7.5 323.02v91.544c0 23.475 19.03 42.506 42.506 42.506h411.989c23.475 0 42.506-19.03 42.506-42.506v-91.544l-248.501-29.973z" fill="#f8d070"/><path d="m47.5 414.565v-91.545l228.5-27.56-20-2.413-248.5 29.973v91.545c0 23.475 19.03 42.505 42.506 42.505h40c-23.476 0-42.506-19.03-42.506-42.505z" fill="#ffa83f"/><path d="m461.994 54.93h-411.988c-23.476 0-42.506 19.03-42.506 42.506v91.544l248.5 38.009 248.5-38.009v-91.544c0-23.476-19.03-42.506-42.506-42.506z" fill="#4f4c5f"/><path d="m47.5 188.98v-91.544c0-23.476 19.03-42.506 42.506-42.506h-40c-23.476 0-42.506 19.03-42.506 42.506v91.544l248.5 38.009 20-3.059z" fill="#423e4f"/><path d="m7.5 188.98h497v134.04h-497z" fill="#fd5f7e"/><path d="m7.5 188.98h40v134.04h-40z" fill="#e3254c"/><path d="m163.055 267.114c4.142 0 7.5-3.358 7.5-7.5v-17.86c0-4.142-3.358-7.5-7.5-7.5s-7.5 3.358-7.5 7.5v17.86c0 4.142 3.358 7.5 7.5 7.5z"/><path d="m348.944 267.114c4.142 0 7.5-3.358 7.5-7.5v-17.86c0-4.142-3.358-7.5-7.5-7.5s-7.5 3.358-7.5 7.5v17.86c0 4.142 3.358 7.5 7.5 7.5z"/><path d="m256 277.746c11.559 0 22.551-5.007 30.158-13.736 2.721-3.123 2.396-7.86-.727-10.582-3.122-2.721-7.86-2.396-10.582.727-4.758 5.46-11.629 8.591-18.85 8.591-7.222 0-14.092-3.131-18.85-8.591-2.721-3.123-7.459-3.448-10.582-.727s-3.448 7.459-.727 10.582c7.609 8.729 18.601 13.736 30.16 13.736z"/><path d="m0 414.564c0 27.573 22.432 50.005 50.005 50.005h309.513c4.142 0 7.5-3.358 7.5-7.5s-3.358-7.5-7.5-7.5h-309.513c-19.301.001-35.005-15.702-35.005-35.005v-84.044h482v84.044c0 19.302-15.704 35.005-35.006 35.005h-72.476c-4.142 0-7.5 3.358-7.5 7.5s3.358 7.5 7.5 7.5h72.476c27.573 0 50.006-22.432 50.006-50.005 0-36.955 0-285.756 0-317.129 0-27.573-22.433-50.005-50.006-50.005h-311.271c-4.142 0-7.5 3.358-7.5 7.5s3.358 7.5 7.5 7.5h311.271c19.302 0 35.006 15.703 35.006 35.006v84.044h-482v-84.044c0-19.303 15.704-35.006 35.005-35.006h70.717c4.142 0 7.5-3.358 7.5-7.5s-3.358-7.5-7.5-7.5h-70.717c-27.573 0-50.005 22.432-50.005 50.006zm497-218.084v119.04h-482v-119.04z"/></svg>