<svg height="512" viewBox="0 0 42 60" width="512" xmlns="http://www.w3.org/2000/svg"><g id="Page-1" fill="none" fill-rule="evenodd"><g id="005---French-Man" fill-rule="nonzero"><path id="Shape" d="m22 45c.62-1.23.09-2.84-.4-3.9 2.5353927.5218173 5.173602.1322831 7.45-1.1.0025597-.3354657-.0275828-.6703822-.09-1h4.04c4.0326671-.0013842 7.4359168 2.9989619 7.94 7h-19.77c.3458247-.2692883.6290215-.6104893.83-1z" fill="#f5f5f5"/><path id="Shape" d="m33 39-3-.0000005c4.0326671-.0013837 7.4359168 2.9989624 7.94 7.0000005h3c-.5040832-4.0010381-3.9073329-7.0013842-7.94-7z" fill="#cfd8dc"/><path id="Shape" d="m19.81 41.19c-1.0412717 1.3992221-1.655936 3.0695809-1.77 4.81h-16.98c.50408318-4.0010381 3.90733288-7.0013842 7.94-7h4.09c-.0624172.3296178-.0925597.6645343-.09 1 2.077805 1.1335209 4.4709155 1.5517003 6.81 1.19z" fill="#f5f5f5"/><path id="Shape" d="m41 47 .0000022 5h-40.00000444l.00000224-5c-.00024597-.3342401.01979085-.6681872.06-1h16.98c-.03.32-.04.65-.04 1 1.1311496-.0196911 2.2323047-.3670586 3.17-1h19.77c.0402091.3318128.060246.6657599.06 1z" fill="#02a9f4"/><path id="Shape" d="m40.94 46h-3c.0402091.3318128.060246.6657599.06 1v5h3.0000022l-.0000022-5c.000246-.3342401-.0197909-.6681872-.06-1z" fill="#0377bc"/><path id="Shape" d="m41 52v6c0 .5522847-.4477153 1-1 1h-38c-.55228475 0-1-.4477153-1-1v-6z" fill="#f5f5f5"/><path id="Shape" d="m38 52v6c0 .5522847-.4477153 1-1 1h3c.5522847 0 1-.4477153 1-1v-6z" fill="#cfd8dc"/><path id="Shape" d="m32 11.2v12.8c.0034665 3.8139218-2.4023008 7.2140729-6 8.48-.9621902.346327-1.9773822.5222936-3 .52h-4c-1.0226178.0022936-2.0378098-.173673-3-.52-3.5976992-1.2659271-6.00346655-4.6660782-6-8.48v-10c1 0 2-3.8 11-4.8s11 2 11 2z" fill="#ffe0b2"/><path id="Shape" d="m22.865 9.047c4.885.311 6.135 2.153 6.135 2.153v12.8c.0034665 3.8139218-2.4023008 7.2140729-6 8.48-.9621902.346327-1.9773822.5222936-3 .5200221l3-.0000221c1.0226178.0022936 2.0378098-.173673 3-.52 3.5976992-1.2659271 6.0034665-4.6660782 6-8.48v-12.8s-1.728-2.569-9.135-2.153z" fill="#dfc49c"/><path id="Shape" d="m26 32.48v3.85c-2.5.85-3.77 1.83-4.4 2.67-.2477008.3256732-.4309787.6956231-.54 1.09v.01c-.0189524.0615919-.0290534.1255651-.03.19-.14-.93-1.01-2.62-5.03-3.98v-3.83c.9621902.346327 1.9773822.5222936 3 .52h4c1.0226178.0022936 2.0378098-.173673 3-.52z" fill="#ffe0b2"/><path id="Shape" d="m23 33v3.33c-1.2483979.3840265-2.423173.9756399-3.475 1.75.7675901.5153249 1.3067077 1.3069859 1.505 2.21.0009466-.0644349.0110476-.1284081.03-.19v-.01c.1090213-.3943769.2922992-.7643268.54-1.09.63-.84 1.9-1.82 4.4-2.67v-3.85c-.9621902.346327-1.9773822.5222936-3 .52z" fill="#dfc49c"/><path id="Shape" d="m34 7c0 4-2 4.2-2 4.2s-2-3-11-2-10 4.8-11 4.8-6 2-6-4c0-5 10-9 17-9s13 2 13 6z" fill="#3f51b5"/><path id="Shape" d="m21 1c-.428 0-.868.015-1.316.045 6.25.299 11.316 2.281 11.316 5.955.0534449 1.04985624-.1569591 2.09637545-.612 3.044.6245296.2463414 1.1783434.6434932 1.612 1.156 0 0 2-.2 2-4.2s-6-6-13-6z" fill="#283593"/><g fill="#f44335"><path id="Shape" d="m21.02 40.89c-.01.07-.02.11-.02.11-.41.08-.81.14-1.19.19-2.3390845.3617003-4.732195-.0564791-6.81-1.19-.0025597-.3354657.0275828-.6703822.09-1 .145257-1.2391602.8487042-2.3440511 1.91-3 .36.1.69.21 1 .31 4.02 1.36 4.89 3.05 5.03 3.98.0347801.1988218.0313863.4024476-.01.6z"/><path id="Shape" d="m29.05 40c-2.276398 1.2322831-4.9146073 1.6218173-7.45 1.1-.18-.03-.36-.06-.55-.1 0 0-.01-.04-.03-.11.0413863-.1975524.0447801-.4011782.01-.6.0009466-.0644349.0110476-.1284081.03-.19v-.01c.1090213-.3943769.2922992-.7643268.54-1.09.63-.84 1.9-1.82 4.4-2.67.32-.11.68-.22 1.05-.33 1.0612958.6559489 1.764743 1.7608398 1.91 3 .0624172.3296178.0925597.6645343.09 1z"/><path id="Shape" d="m22 45c-.2009785.3895107-.4841753.7307117-.83 1-.9376953.6329414-2.0388504.9803089-3.17 1 0-.35.01-.68.04-1 .114064-1.7404191.7287283-3.4107779 1.77-4.81.38-.05.78-.11 1.19-.19 0 0 .01-.04.02-.11.02.07.03.11.03.11.19.04.37.07.55.1.49 1.06 1.02 2.67.4 3.9z"/></g><path id="Shape" d="m10 18v6h-2c-1.10320187-.0032948-1.9967052-.8967981-2-2v-2c.0032948-1.1032019.89679813-1.9967052 2-2z" fill="#dfc49c"/><path id="Shape" d="m36 20v2c-.0032948 1.1032019-.8967981 1.9967052-2 2h-2v-6h2c1.1032019.0032948 1.9967052.8967981 2 2z" fill="#dfc49c"/><path id="Shape" d="m24 27c-1.0816928.0493526-2.1454918-.2889355-3-.954-.8545082.6650645-1.9183072 1.0033526-3 .954-1.5133262-.0148788-2.9161541-.7951477-3.727-2.073-.6502863-1.0153214-.714209-2.299102-.168-3.374.1596977-.3197527.4778505-.5300187.8346134-.5515928.3567628-.021574.6979349.1488214.895.4470001.1970651.2981786.2200843.67884.0603866.9985927-.2399786.4542854-.2095921 1.0039358.079 1.429.4504809.6838776 1.207335 1.103771 2.026 1.124 1.3 0 2-.515 2-1 0-.5522847.4477153-1 1-1s1 .4477153 1 1c0 .485.7 1 2 1 .818665-.020229 1.5755191-.4401224 2.026-1.124.2885921-.4250642.3189786-.9747146.079-1.429-.2468713-.4942948-.0462948-1.0951287.448-1.342.4942949-.2468713 1.0951287-.0462948 1.342.448.546209 1.074898.4822863 2.3586786-.168 3.374-.8108459 1.2778523-2.2136738 2.0581212-3.727 2.073z" fill="#607d8b"/><path id="Shape" d="m2 60h38c1.1045695 0 2-.8954305 2-2v-11c-.0016774-.3341804-.0217076-.6680165-.06-1 0-.04 0-.08-.007-.12-.5673274-4.5020076-4.395387-7.878825-8.933-7.88h-3.26c-.3517799-1.2158073-1.1525093-2.2524659-2.24-2.9-.1562342-.0720865-.3285991-.102078-.5-.087v-1.854c3.308713-1.4485249 5.5816459-4.5658319 5.949-8.159h1.051c1.6568542 0 3-1.3431458 3-3v-2c0-1.6568542-1.3431458-3-3-3h-1v-5.134c.852-.5 2-1.749 2-4.866 0-4.252-5.495-7-14-7-7.248 0-18 4.2-18 10 0 2.037.542 3.52 1.61 4.407.81172344.6327742 1.82163561.9570091 2.85.915.51651384-.0054984 1.03165507-.0543365 1.54-.146v1.824h-1c-1.65685425 0-3 1.3431458-3 3v2c0 1.6568542 1.34314575 3 3 3h1.051c.36735413 3.5931681 2.640287 6.7104751 5.949 8.159v1.854c-.1541444-.0047121-.307245.0267986-.447.092-1.091604.6436294-1.8971792 1.6787559-2.253 2.895h-3.3c-4.53727704.0011114-8.36521073 3.3773892-8.933 7.879-.005.04 0 .081-.007.121-.0381294.3319978-.05815903.6658249-.06 1v11c0 1.1045695.8954305 2 2 2zm15-13c0 .5522847.4477153 1 1 1 1.2209674-.0330156 2.4132882-.377219 3.464-1h18.536v4h-6v-1c0-.5522847-.4477153-1-1-1s-1 .4477153-1 1v1h-22v-1c0-.5522847-.44771525-1-1-1s-1 .4477153-1 1v1h-6v-4zm3.385-4.9c.168-.025.333-.045.507-.076.4014809.7778584.4798203 1.6827152.218 2.518-.1346152.2604072-.3243482.4883598-.556.668-.4468896.3233851-.958687.5458464-1.5.652.1260945-1.3446946.5833845-2.6372002 1.331-3.762zm11.615 10.9v5h-22v-5zm-30 0h6v5h-6zm32 5v-5h6v5zm-1-18c3.0949422.0020652 5.821838 2.0346352 6.708 5h-16.63c.2625834-.8982077.2601527-1.8531407-.007-2.75.244.013.493.029.725.029 2.0307893.0605377 4.038981-.4397802 5.804-1.446.2802689-.1845708.4492731-.4974162.45-.833zm-5.021-.8c.015.07.026.144.036.222-1.8668807.8012453-3.9221351 1.0588021-5.929.743.0791899-.2014049.1847799-.3913995.314-.565.454-.606 1.5-1.5 3.925-2.324.174-.06.361-.12.554-.18.6055826.5479149.9956608 1.2940282 1.1 2.104zm6.021-20.2c.5522847 0 1 .4477153 1 1v2c0 .5522847-.4477153 1-1 1h-1v-4zm-28.113-6.132c-.69366746-.7843419-1.01675235-1.8289952-.887-2.868 0-4.045 9.162-8 16-8 7.065 0 12 2.056 12 5 .1217743 1.06222656-.1613884 2.13131753-.793 2.994-1.185-.978-4.261-2.569-11.317-1.784-7 .777-9.476 3.24-10.668 4.424-.136.135-.3.3-.4.378-.2.017-.428.059-.7.11-.891.168-2.388.449-3.235-.254zm1.113 9.132v-2c0-.5522847.44771525-1 1-1h1v4h-1c-.55228475 0-1-.4477153-1-1zm4 2v-9.38c.2223553-.1751772.4331299-.3645737.631-.567 1.111-1.1 3.178-3.155 9.479-3.855 6.782-.751 9.256.854 9.89 1.4v12.402c-.0049599 4.4162219-3.5837781 7.9950401-8 8h-4c-4.4162219-.0049599-7.9950401-3.5837781-8-8zm8 10h4c.6716974.0007873 1.3417594-.0662189 2-.2v1.833c-1.5086564.498152-2.8733056 1.3562061-3.976 2.5-1.1140404-1.1572488-2.4961321-2.0220864-4.024-2.518v-1.815c.6582406.1337811 1.3283026.2007873 2 .2zm-3.83 3.093c3.558 1.093 4.533 2.357 4.789 3.069-2.0058614.3288269-4.0639906.0726023-5.928-.738.0629631-.8953198.4713708-1.7311391 1.139-2.331zm-6.17 2.907h3c-.00005.3342785.1669303.6464754.445.832 1.6923818.9608909 3.6089578 1.4566821 5.555 1.437-.4048969.8672084-.6879114 1.7862483-.841 2.731h-14.867c.88644575-2.9651663 3.61316693-4.9976061 6.708-5z" fill="#000"/><path id="Shape" d="m24 27c1.5133262-.0148788 2.9161541-.7951477 3.727-2.073.6502863-1.0153214.714209-2.299102.168-3.374-.2468713-.4942948-.8477051-.6948713-1.342-.448-.4942948.2468713-.6948713.8477052-.448 1.342.2399786.4542854.2095921 1.0039358-.079 1.429-.4504809.6838776-1.207335 1.103771-2.026 1.124-1.3 0-2-.515-2-1 0-.5522847-.4477153-1-1-1s-1 .4477153-1 1c0 .485-.7 1-2 1-.818665-.020229-1.5755191-.4401224-2.026-1.124-.2885921-.4250642-.3189786-.9747146-.079-1.429.1596977-.3197527.1366785-.7004141-.0603866-.9985927-.1970651-.2981787-.5382372-.4685741-.895-.4470001-.3567629.0215741-.6749157.2318401-.8346134.5515928-.546209 1.074898-.4822863 2.3586786.168 3.374.8108459 1.2778523 2.2136738 2.0581212 3.727 2.073 1.0816928.0493526 2.1454918-.2889355 3-.954.8545082.6650645 1.9183072 1.0033526 3 .954z" fill="#000"/></g></g></svg>