<svg height="512" viewBox="0 0 60 60" width="512" xmlns="http://www.w3.org/2000/svg"><g id="Page-1" fill="none" fill-rule="evenodd"><g id="013---Study" fill-rule="nonzero"><circle id="Oval" cx="38" cy="19" fill="#02a9f4" r="16"/><path id="Shape" d="m38 3c-.506 0-1.006.03-1.5.076 8.2180365.77140554 14.4992559 7.669838 14.4992559 15.924s-6.2812194 15.1525945-14.4992559 15.924c.494.046.994.076 1.5.076 8.836556 0 16-7.163444 16-16s-7.163444-16-16-16z" fill="#0377bc"/><path id="Rectangle-path" d="m1 29h8v20h-8z" fill="#ffdc00"/><path id="Shape" d="m9 26v3h-8v-3c0-.5522847.44771525-1 1-1h6c.55228475 0 1 .4477153 1 1z" fill="#ff9801"/><path id="Shape" d="m1 49h8v9c0 .5522847-.44771525 1-1 1h-6c-.55228475 0-1-.4477153-1-1z" fill="#ffdc00"/><path id="Rectangle-path" d="m9 18h9v29h-9z" fill="#9d27b0"/><path id="Shape" d="m18 15v3h-9v-3c0-.5522847.44771525-1 1-1h7c.5522847 0 1 .4477153 1 1z" fill="#e91e63"/><path id="Shape" d="m9 47h9v11c0 .5522847-.4477153 1-1 1h-7c-.55228475 0-1-.4477153-1-1z" fill="#9d27b0"/><path id="Rectangle-path" d="m9 47h9v5h-9z" fill="#e91e63"/><path id="Rectangle-path" d="m1 49h8v5h-8z" fill="#ff9801"/><path id="Shape" d="m46.63 20.815-3.5-1.748c-.0891004-.0440346-.1840737-.0750188-.282-.092l-5.489-.914c-.2343526-.039366-.4750648.0060112-.679.128l-3.78 2.271c-.234641.1407889-.4013386.3715804-.4612391.6385819-.0599006.2670015-.0077708.5468859.1442391.7744181l1.307 1.961c.0734505.1094606.1675394.2035495.277.277l2.388 1.589c.2780697.1855246.44505.4977215.445.832v3.468c0 .5522847.4477153 1 1 1h1.465c.3342785.00005.6464754-.1669303.832-.445l3.489-5.233c.1377653-.2070919.3477633-.3554097.589-.416l2.577-.644c.2702954-.0673747.5002373-.2444408.6344397-.4885487s.1605006-.5331306.0725603-.7974513l-.528-1.583c-.0838031-.2514471-.2640011-.4593402-.501-.578z" fill="#a4c400"/><path id="Shape" d="m34 45h8c2.209139 0 4 1.790861 4 4 0 .5522847-.4477153 1-1 1h-14c-.5522847 0-1-.4477153-1-1 0-2.209139 1.790861-4 4-4z" fill="#7f8e94"/><path id="Shape" d="m42 45h-3c2.209139 0 4 1.790861 4 4 0 .5522847-.4477153 1-1 1h3c.5522847 0 1-.4477153 1-1 0-2.209139-1.790861-4-4-4z" fill="#545c60"/><path id="Rectangle-path" d="m33 50h22v9h-22z" fill="#ffdc00"/><path id="Rectangle-path" d="m52 50h3v9h-3z" fill="#fec108"/><path id="Shape" d="m33 50v9h-10c-.5522847 0-1-.4477153-1-1v-7c0-.5522847.4477153-1 1-1z" fill="#ffdc00"/><path id="Shape" d="m59 51v7c0 .5522847-.4477153 1-1 1h-3v-9h3c.5522847 0 1 .4477153 1 1z" fill="#ff9801"/><path id="Shape" d="m58 50h-3c.5522847 0 1 .4477153 1 1v7c0 .5522847-.4477153 1-1 1h3c.5522847 0 1-.4477153 1-1v-7c0-.5522847-.4477153-1-1-1z" fill="#f57c00"/><path id="Rectangle-path" d="m28 50h5v9h-5z" fill="#ff9801"/><path id="Shape" d="m30 26.41v2.09c-.0021656.3142421-.1499057.6097222-.4.8l-2.22 1.67c-3.2966146-2.9285196-5.2401803-7.0865072-5.3726523-11.4940401-.132472-4.4075328 1.5578675-8.6747405 4.6726523-11.7959599l2.92 2.92c.2501337.2474933.3492433.6096245.26.95l-.82 3.28c-.02584.1115299-.0734136.2168717-.14.31l-1.73 2.61c-.1098407.1624731-.1690041.353884-.17.55v4.29c.0020603.2621467.1060681.5132.29.7l2.42 2.42c.1839319.1868.2879397.4378533.29.7z" fill="#a4c400"/><path id="Shape" d="m51.71 10.74-5.36 3.06c-.2231776.1315038-.4899232.1675505-.74.1l-3.37-.84c-.1575-.04-.3225-.04-.48 0l-3.12.78c-.3895848.0981796-.7999658-.0478213-1.04-.37l-2.08-2.78c-.2991776-.3949081-.2607422-.95008635.09-1.3l2.18-2.18c.134318-.13478707.3043047-.22845322.49-.27l7.82-1.74c2.3006418 1.35266359 4.2285572 3.25652296 5.61 5.54z" fill="#a4c400"/><path id="Shape" d="m46.1 5.2-2.256.5c1.9725978 1.30208104 3.6339986 3.02289079 4.866 5.04l-4.8 2.737 1.7.423c.2500768.0675505.5168224.0315038.74-.1l5.36-3.06c-1.3814428-2.28347704-3.3093582-4.18733641-5.61-5.54z" fill="#90ac00"/><g fill="#000"><path id="Shape" d="m21 19c0 9.3888407 7.6111593 17 17 17s17-7.6111593 17-17c0-9.38884075-7.6111593-17-17-17-9.3845001.01047101-16.989529 7.61549991-17 17zm2 0c.0003576-3.630467 1.3247761-7.1361762 3.725-9.86l2.165 2.167-.824 3.28-1.721 2.6c-.2229229.3285329-.3430212.7159804-.345 1.113v4.29c.0003759.5285737.2099796 1.0355056.583 1.41l2.417 2.41v2.09l-1.54 1.158c-2.854838-2.8114533-4.4616418-6.6512099-4.46-10.658zm27.276-8.593-4.424 2.523-3.369-.84c-.3170307-.0800031-.6489693-.0800031-.966 0l-3.116.781-2.084-2.771 2.183-2.184 7.4-1.646c1.7215366 1.07133033 3.20977 2.47828224 4.376 4.137zm-7.292-5.538-4.921 1.1c-.371477.08228583-.711578.26934141-.98.539l-2.183 2.175c-.7023413.7013639-.7808233 1.8129069-.184 2.606l2.084 2.781c.4803813.6457699 1.3028756.9379666 2.083.74l3.117-.78 3.34.833c.1689337.0473157.3435654.0712055.519.071.3468636-.0012238.6874084-.0929089.988-.266l4.467-2.55c3.2283994 6.2056769 1.7297414 13.8197196-3.6096351 18.3390169s-13.0963865 4.7393371-18.6833649.5299831l1.184-.891c.5016428-.3793487.7975067-.9710766.8-1.6v-2.086c-.0017027-.5292898-.213146-1.0363222-.588-1.41l-2.417-2.41v-4.29l1.686-2.549c.1522782-.20276.2615131-.4345013.321-.681l.816-3.266c.1796494-.6848981-.0179659-1.4136759-.519-1.914l-2.165-2.165c4.0577433-3.58691567 9.7460168-4.6812713 14.845-2.856z"/><path id="Shape" d="m2 60h6c.35213672-.0019998.69735549-.0979706 1-.278.30264451.1800294.64786328.2760002 1 .278h7c1.1045695 0 2-.8954305 2-2v-43c0-1.1045695-.8954305-2-2-2h-7c-1.1045695 0-2 .8954305-2 2v9h-6c-1.1045695 0-2 .8954305-2 2v32c0 1.1045695.8954305 2 2 2zm8-41h7v27h-7zm-8 31h6v3h-6zm8-1v-1h7v3h-7zm-2-2v1h-6v-18h6zm-6 11v-3h6v3zm8 0v-5h7v5zm7-43v2h-7v-2zm-9 11v2h-6v-2z"/><path id="Shape" d="m33.057 24.388c.1461533.2201473.3348527.4088467.555.555l2.388 1.592v3.465c0 1.1045695.8954305 2 2 2h1.465c.6687467-.0001229 1.29318-.3344799 1.664-.891l3.489-5.233 2.576-.644c.5406461-.1349453 1.0004815-.4893262 1.2687091-.9777548.2682276-.4884285.3205249-1.0666148.1442909-1.5952452l-.527-1.582c-.1663185-.5032417-.5261462-.9195624-1-1.157l-3.492-1.745c-.1790177-.0907841-.3709245-.1535163-.569-.186l-5.488-.915c-.4692552-.0773182-.950729.0140874-1.359.258l-3.787 2.268c-.4688689.2814187-.8020591.7425484-.9220254 1.2760674-.1199662.5335191-.0162445 1.0928921.2870254 1.5479326zm4.143-5.341 5.488.915 3.5 1.747.527 1.583-2.578.645c-.4822411.1199228-.9021247.4160174-1.177.83l-3.495 5.233h-1.465v-3.465c-.0001229-.6687467-.3344799-1.29318-.891-1.664l-2.388-1.592-1.307-1.961z"/><path id="Shape" d="m58 49h-11c-.0033061-2.7600532-2.2399468-4.9966939-5-5h-3v-4.017c3.2330749-.1486254 6.3866431-1.0509657 9.209-2.635 6.8054209-3.784706 10.9570889-11.0251895 10.7857772-18.8103296-.1713117-7.78514-4.6374598-14.83598891-11.6027772-18.3176704-.4934664-.24852814-1.0949719-.04996642-1.3435.4435s-.0499664 1.09497186.4435 1.3435c6.3034161 3.15091318 10.3451061 9.5318137 10.5000624 16.5771879s-3.6022774 13.5978047-9.7610624 17.0228121c-6.349 3.545-13.926 3.154-20.791-1.074-.4669732-.257455-1.0538109-.1032064-1.3338325.3505942-.2800217.4538006-.1547058 1.0474899.2848325 1.3494058 3.490178 2.2106485 7.4848149 3.4982643 11.609 3.742v4.025h-3c-2.7600532.0033061-4.9966939 2.2399468-5 5h-6c-1.1045695 0-2 .8954305-2 2v7c0 1.1045695.8954305 2 2 2h35c1.1045695 0 2-.8954305 2-2v-7c0-1.1045695-.8954305-2-2-2zm-4 2v7h-20v-7zm-20-5h8c1.6557127.0027526 2.9972474 1.3442873 3 3h-14c0-.7956495.3160705-1.5587112.8786797-2.1213203.5626091-.5626092 1.3256708-.8786797 2.1213203-.8786797zm-3 5h1v7h-3v-7zm-8 0h4v7h-4zm35 7h-2v-7h2z"/></g></g></g></svg>