<svg id="Capa_1" enable-background="new 0 0 512 512" height="512" viewBox="0 0 512 512" width="512" xmlns="http://www.w3.org/2000/svg"><path d="m70.256 122.77c-7.859 2.62-12.106 11.114-9.486 18.974v270c2.62 7.859 11.113 12.106 18.974 9.487 42.477-14.159 88.743-14.499 131.256-1.575l6-148.656-6-152.512c-45.978-12.127-95.269-10.877-140.744 4.282z" fill="#b9dd39"/><path d="m491.516 123.039-55.592 21.836c-24.103 9.642-49.496 14.688-74.924 15.227l-11 137.638 11 162.378c29.188-.54 58.338-6.297 85.979-17.354l55.505-21.802c5.74-2.255 9.516-7.794 9.516-13.961v-270.001c0-10.552-10.644-17.828-20.484-13.961z" fill="#ff641a"/><path d="m361 160.1v300.02c-1.51.03-3.01.05-4.52.05-28.85 0-51.41-4.35-70.48-10.36-29.93-9.44-51.3-22.95-75-30.15v-301.17c29.05 7.66 49.78 20.18 75 29.5 20.04 7.41 42.9 12.79 75 12.11z" fill="#fff7cc"/><path d="m75 90h-60c-8.28 0-15 6.72-15 15v392c0 8.28 6.72 15 15 15h60c8.28 0 15-6.72 15-15v-392c0-8.28-6.72-15-15-15z" fill="#725d57"/><path d="m45 0c-24.81 0-45 20.19-45 45s20.19 45 45 45 45-20.19 45-45-20.19-45-45-45z" fill="#725d57"/><g fill="#53433f"><path d="m45 0v90c24.813 0 45-20.187 45-45s-20.187-45-45-45z"/><path d="m45 90v-90c24.81 0 45 20.19 45 45s-20.19 45-45 45z"/><path d="m90 105v392c0 8.28-6.72 15-15 15h-30v-422h30c8.28 0 15 6.72 15 15z"/></g><path d="m361 160.1v300.02c-1.51.03-3.01.05-4.52.05-28.85 0-51.41-4.35-70.48-10.36v-301.82c20.04 7.41 42.9 12.79 75 12.11z" fill="#ffe6b3"/></svg>