<svg id="Icon_Set" enable-background="new 0 0 256 256" height="512" viewBox="0 0 256 256" width="512" xmlns="http://www.w3.org/2000/svg"><g><path d="m245.416 105.035c0-54.834-52.569-99.285-117.416-99.285s-117.416 44.451-117.416 99.285c0 25.33 11.219 48.443 29.683 65.983 3.144 2.987 4.887 7.159 4.887 11.496v38.593c0 16.095 13.048 29.143 29.143 29.143h107.407c16.095 0 29.143-13.048 29.143-29.143v-38.593c0-4.337 1.743-8.509 4.887-11.496 18.463-17.54 29.682-40.653 29.682-65.983z" fill="#ffe2e2"/><path d="m98.721 250.244h-24.426c-16.089 0-29.148-13.044-29.148-29.132v-38.593c0-4.348-1.742-8.516-4.885-11.496-18.466-17.538-29.686-40.661-29.686-65.983 0-54.845 52.581-99.284 117.424-99.284 4.12 0 8.207.179 12.213.521-59.111 5.178-105.211 47.403-105.211 98.763 0 25.322 11.22 48.445 29.686 65.983 3.143 2.98 4.885 7.149 4.885 11.496v38.593c0 16.088 13.06 29.132 29.148 29.132z" fill="#ffefee"/><path d="m245.424 105.04c0 25.322-11.22 48.445-29.686 65.983-3.143 2.98-4.885 7.149-4.885 11.496v38.593c0 16.089-13.06 29.132-29.148 29.132h-24.426c16.089 0 29.148-13.044 29.148-29.132v-38.593c0-4.348 1.742-8.516 4.885-11.496 18.466-17.538 29.686-40.661 29.686-65.983 0-51.36-46.1-93.584-105.211-98.762 4.006-.342 8.093-.521 12.213-.521 64.843-.001 117.424 44.438 117.424 99.283z" fill="#ffcfcf"/><path d="m143.326 168.223c0 8.464-6.862 15.326-15.326 15.326s-15.326-6.862-15.326-15.326 6.862-25.776 15.326-25.776 15.326 17.312 15.326 25.776z" fill="#87828e"/><circle cx="79.604" cy="97.5" fill="#ff4a73" r="37.436"/><circle cx="176.396" cy="97.5" fill="#ff4a73" r="37.436"/><path d="m99.613 97.402c3.448-3.177 4.37-8.42 1.928-12.651-2.46-4.261-7.517-6.083-12.017-4.629-1.028-4.575-5.107-7.995-9.992-7.995-4.92 0-9.026 3.469-10.017 8.093-4.476-1.397-9.478.425-11.92 4.656-2.46 4.261-1.509 9.551 2 12.721-3.448 3.177-4.37 8.42-1.928 12.651 2.46 4.261 7.517 6.083 12.017 4.629 1.028 4.575 5.107 7.995 9.992 7.995 4.92 0 9.026-3.468 10.017-8.093 4.476 1.397 9.477-.425 11.92-4.656 2.46-4.26 1.509-9.55-2-12.721z" fill="#ffe2e2"/><circle cx="79.604" cy="97.5" fill="#3193f3" r="10.436"/><path d="m196.406 97.402c3.448-3.177 4.37-8.42 1.928-12.651-2.46-4.261-7.517-6.083-12.017-4.629-1.028-4.575-5.107-7.995-9.992-7.995-4.92 0-9.026 3.469-10.017 8.093-4.476-1.397-9.478.425-11.92 4.656-2.46 4.261-1.509 9.551 2 12.721-3.448 3.177-4.37 8.42-1.928 12.651 2.46 4.261 7.517 6.083 12.017 4.629 1.028 4.575 5.107 7.995 9.992 7.995 4.92 0 9.026-3.468 10.017-8.093 4.476 1.397 9.477-.425 11.92-4.656 2.46-4.26 1.509-9.55-2-12.721z" fill="#ffe2e2"/><circle cx="176.397" cy="97.5" fill="#3193f3" r="10.436"/><g fill="#5f266d"><path d="m128 1.75c-66.949 0-121.416 46.333-121.416 103.285 0 25.474 10.983 49.937 30.928 68.883 2.314 2.199 3.642 5.332 3.642 8.596v38.593c0 18.275 14.868 33.143 33.144 33.143h107.406c18.275 0 33.144-14.868 33.144-33.143v-38.593c0-3.264 1.327-6.397 3.642-8.596 19.944-18.946 30.928-43.409 30.928-68.883-.002-56.952-54.469-103.285-121.418-103.285zm84.979 166.368c-3.896 3.702-6.132 8.949-6.132 14.396v38.593c0 13.864-11.279 25.143-25.144 25.143h-6.294c.081-.318.138-.645.138-.989v-33.595c0-2.209-1.791-4-4-4s-4 1.791-4 4v33.595c0 .343.057.671.138.989h-21.307c.081-.318.138-.645.138-.989v-33.595c0-2.209-1.791-4-4-4s-4 1.791-4 4v33.595c0 .343.057.671.138.989h-21.307c.081-.318.138-.645.138-.989v-33.595c0-2.209-1.791-4-4-4s-4 1.791-4 4v33.595c0 .343.057.671.138.989h-21.308c.081-.318.138-.645.138-.989v-33.595c0-2.209-1.791-4-4-4s-4 1.791-4 4v33.595c0 .343.057.671.138.989h-6.294c-13.864 0-25.144-11.279-25.144-25.143v-38.593c0-5.447-2.235-10.694-6.132-14.396-18.338-17.421-28.438-39.824-28.438-63.083.001-52.54 50.879-95.285 113.417-95.285s113.416 42.745 113.416 95.285c0 23.259-10.1 45.662-28.437 63.083z"/><path d="m128 138.447c-12.024 0-19.326 20.681-19.326 29.776 0 10.656 8.67 19.326 19.326 19.326s19.326-8.67 19.326-19.326c0-9.095-7.302-29.776-19.326-29.776zm0 41.102c-6.245 0-11.326-5.081-11.326-11.326 0-7.884 6.548-21.776 11.326-21.776s11.326 13.892 11.326 21.776c0 6.245-5.081 11.326-11.326 11.326z"/><path d="m54.43 97.607c-2.741 4.376-2.926 9.969-.227 14.642 2.678 4.639 7.756 7.295 12.906 7.106 2.42 4.561 7.171 7.517 12.566 7.517 5.355 0 10.187-3.049 12.607-7.625 5.181.202 10.096-2.451 12.793-7.123 2.679-4.639 2.454-10.347-.299-14.732 2.74-4.376 2.925-9.969.228-14.641-2.679-4.64-7.753-7.29-12.907-7.106-2.419-4.562-7.17-7.518-12.566-7.518-5.356 0-10.188 3.049-12.607 7.625-5.162-.192-10.096 2.451-12.793 7.124-2.679 4.639-2.453 10.347.299 14.731zm6.629-10.731c1.446-2.506 4.501-3.699 7.265-2.837 2.25.703 4.611-.685 5.103-2.981.612-2.856 3.18-4.93 6.105-4.93 2.895 0 5.455 2.049 6.09 4.872.516 2.3 2.898 3.652 5.132 2.93 2.778-.899 5.861.289 7.324 2.823 1.446 2.506.952 5.749-1.175 7.71-1.73 1.593-1.715 4.332.029 5.909 2.168 1.958 2.68 5.219 1.217 7.753-1.446 2.505-4.496 3.7-7.264 2.837-2.251-.701-4.611.685-5.103 2.98-.612 2.857-3.181 4.931-6.106 4.931-2.894 0-5.455-2.049-6.09-4.872-.516-2.298-2.9-3.651-5.132-2.929-2.781.9-5.86-.289-7.323-2.823-1.447-2.506-.953-5.748 1.175-7.708 1.734-1.6 1.711-4.337-.029-5.91-2.17-1.96-2.681-5.221-1.218-7.755z"/><path d="m79.604 138.936c22.849 0 41.437-18.588 41.437-41.436s-18.588-41.436-41.437-41.436-41.437 18.588-41.437 41.436 18.588 41.436 41.437 41.436zm0-74.872c18.437 0 33.437 15 33.437 33.436s-15 33.436-33.437 33.436-33.437-15-33.437-33.436 15-33.436 33.437-33.436z"/><path d="m79.604 111.936c7.96 0 14.437-6.476 14.437-14.436s-6.477-14.436-14.437-14.436-14.436 6.476-14.436 14.436 6.476 14.436 14.436 14.436zm0-20.872c3.549 0 6.437 2.887 6.437 6.436s-2.888 6.436-6.437 6.436-6.436-2.887-6.436-6.436 2.887-6.436 6.436-6.436z"/><path d="m163.717 75.752c-5.162-.192-10.096 2.451-12.793 7.124-2.679 4.639-2.453 10.347.299 14.731-2.741 4.376-2.926 9.969-.227 14.642 2.679 4.639 7.709 7.295 12.906 7.106 2.419 4.562 7.17 7.517 12.566 7.517 5.356 0 10.188-3.049 12.607-7.625 5.151.202 10.096-2.451 12.793-7.124 2.679-4.639 2.453-10.347-.299-14.731 2.741-4.376 2.926-9.969.228-14.641-2.679-4.64-7.746-7.29-12.907-7.106-2.419-4.562-7.17-7.518-12.566-7.518-5.356 0-10.187 3.05-12.607 7.625zm18.697 5.247c.516 2.3 2.898 3.652 5.132 2.93 2.78-.899 5.86.289 7.324 2.823 1.446 2.506.952 5.749-1.175 7.71-1.73 1.593-1.715 4.332.029 5.909 2.168 1.958 2.68 5.219 1.217 7.753-1.447 2.506-4.501 3.7-7.265 2.837-2.257-.703-4.612.69-5.103 2.981-.612 2.856-3.18 4.93-6.105 4.93-2.895 0-5.455-2.049-6.09-4.871-.517-2.305-2.903-3.651-5.132-2.93-2.781.9-5.86-.289-7.323-2.823-1.447-2.506-.953-5.748 1.175-7.708 1.734-1.6 1.711-4.337-.029-5.91-2.169-1.958-2.681-5.219-1.218-7.753 1.447-2.506 4.502-3.699 7.265-2.837 2.251.703 4.611-.686 5.103-2.981.612-2.856 3.18-4.93 6.105-4.93 2.895-.002 5.455 2.047 6.09 4.87z"/><path d="m134.96 97.5c0 22.848 18.588 41.436 41.437 41.436s41.437-18.588 41.437-41.436-18.588-41.436-41.437-41.436-41.437 18.588-41.437 41.436zm74.873 0c0 18.437-15 33.436-33.437 33.436s-33.437-15-33.437-33.436 15-33.436 33.437-33.436 33.437 14.999 33.437 33.436z"/><path d="m161.96 97.5c0 7.96 6.477 14.436 14.437 14.436s14.437-6.476 14.437-14.436-6.477-14.436-14.437-14.436-14.437 6.476-14.437 14.436zm14.436-6.436c3.549 0 6.437 2.887 6.437 6.436s-2.888 6.436-6.437 6.436-6.437-2.887-6.437-6.436 2.889-6.436 6.437-6.436z"/><path d="m133.573 50.28c-1.457 1.569-1.422 4.023.104 5.549 1.562 1.561 4.095 1.562 5.657-.001 1.717-1.717 12.697-19.108 35.312-14.333 2.163.461 4.284-.926 4.74-3.087s-.927-4.284-3.088-4.74c-15.981-3.375-30.197 1.399-42.725 16.612z"/><path d="m81.354 41.495c22.189-4.685 32.797 11.818 35.312 14.333 1.562 1.563 4.095 1.563 5.657.001 1.526-1.526 1.562-3.98.104-5.549-12.503-15.183-26.707-19.994-42.726-16.612-2.161.456-3.544 2.578-3.088 4.74s2.576 3.545 4.741 3.087z"/><path d="m93.546 152.079c-44.518 8.994-58.033-28.878-58.587-30.495-.709-2.087-2.976-3.209-5.066-2.502-2.093.707-3.217 2.976-2.511 5.069 5.517 16.383 26.784 44.045 67.748 35.77 2.166-.438 3.566-2.548 3.129-4.713-.438-2.166-2.553-3.564-4.713-3.129z"/><path d="m226.107 119.083c-2.095-.708-4.363.418-5.069 2.511-6.513 19.349-27.515 36.765-58.584 30.486-2.171-.435-4.275.963-4.713 3.129-.438 2.165.963 4.275 3.129 4.713 34.655 7.001 59.901-12.466 67.748-35.769.706-2.094-.418-4.364-2.511-5.07z"/><path d="m57.751 51.458c2.386 0 4.32-1.934 4.32-4.32s-1.934-4.32-4.32-4.32-4.32 1.934-4.32 4.32 1.935 4.32 4.32 4.32z"/><circle cx="41.71" cy="60.389" r="4.32"/><path d="m198.249 51.458c2.386 0 4.32-1.934 4.32-4.32s-1.934-4.32-4.32-4.32-4.32 1.934-4.32 4.32 1.934 4.32 4.32 4.32z"/><circle cx="214.29" cy="60.389" r="4.32"/><path d="m175.945 186.87c-2.386 0-4.32 1.934-4.32 4.32s1.934 4.32 4.32 4.32 4.32-1.934 4.32-4.32-1.934-4.32-4.32-4.32z"/><circle cx="191.986" cy="177.94" r="4.32"/><path d="m80.055 186.87c-2.386 0-4.32 1.934-4.32 4.32s1.934 4.32 4.32 4.32 4.32-1.934 4.32-4.32-1.934-4.32-4.32-4.32z"/><circle cx="64.014" cy="177.94" r="4.32"/><path d="m101.508 27.959c4.827-1.937 18.58-4.434 37.693-2.355 2.2.242 4.171-1.348 4.409-3.544s-1.349-4.17-3.544-4.409c-20.263-2.202-35.504.412-41.568 2.896-2.039.833-3.013 3.154-2.188 5.196.82 2.035 3.142 3.034 5.198 2.216z"/><path d="m153.664 27.857c.498.1.999.202 1.505.308 2.163.453 4.283-.933 4.735-3.095.453-2.162-.933-4.282-3.095-4.735-.529-.111-1.054-.218-1.575-.323-2.165-.43-4.274.972-4.707 3.137-.433 2.166.971 4.274 3.137 4.708z"/></g></g></svg>