<svg height="512" viewBox="0 0 60 60" width="512" xmlns="http://www.w3.org/2000/svg"><g id="Page-1" fill="none" fill-rule="evenodd"><g id="002---Pumpkin" fill-rule="nonzero"><g id="Icons" transform="translate(1 1)"><path id="Shape" d="m58 34c0 12.7-8.06 23-18 23-1.7396858-.0014831-3.4645354-.3200211-5.09-.94-3.5154448 2.5866949-8.3045552 2.5866949-11.82 0-1.6254646.6199789-3.3503142.9385169-5.09.94-9.94 0-18-10.3-18-23s8.06-23 18-23c1.7396858.0014831 3.4645354.3200211 5.09.94.5248819-.3639769 1.0802888-.6818302 1.66-.95 1.3235223-.6472886 2.7766785-.9857885 4.25-.99 1.6545332.0094123 3.2804742.4322258 4.73 1.23.4067092.2136898.8007021.4507533 1.18.71 1.6254646-.6199789 3.3503142-.9385169 5.09-.94 9.94 0 18 10.3 18 23z" fill="#ff9801"/><path id="Shape" d="m40 11c-.499497.0024172-.9985207.0311236-1.495.086 9.235.978 16.495 10.862 16.495 22.914s-7.26 21.936-16.495 22.914c.4964793.0548764.995503.0835828 1.495.086 9.94 0 18-10.3 18-23s-8.06-23-18-23z" fill="#f57c00"/><path id="Shape" d="m33.73 11.22v.01c-1.4495258-.7977742-3.0754668-1.2205877-4.73-1.23-1.4733215.0042115-2.9264777.3427114-4.25.99v-.01c.0242682-1.4194295.4583604-2.80157908 1.25-3.98.9951003-1.23807461 1.1712509-2.94477905.45-4.36-.2312187-.42410352-.1211522-.95326964.26-1.25.8341405-.69630958 1.8323898-1.16789635 2.9-1.37.2578827-.02120436.5135344.0616124.71.23 1.21 1.02 5.33 5.01 3.41 10.97z" fill="#60a917"/><path id="Shape" d="m30.32.25c-.1964656-.1683876-.4521173-.25120436-.71-.23-.6421188.1001682-1.2589854.32287842-1.817.656 2.6881836 2.39005239 3.9063344 6.02699372 3.2 9.554.9545678.2027345 1.8756817.5393989 2.736 1v-.01c1.921-5.96-2.199-9.95-3.409-10.97z" fill="#549414"/><ellipse id="Oval" cx="15" cy="32" fill="#ffdc00" rx="3" ry="4"/><ellipse id="Oval" cx="43" cy="32" fill="#ffdc00" rx="3" ry="4"/><path id="Shape" d="m29 34-3 4h6z" fill="#d84315"/></g><g id="Icons_copy" fill="#000"><path id="Shape" d="m41 11c-1.6915431.0054927-3.3704136.2920632-4.968.848-.048-.031-.1-.063-.144-.093 1.528-6.087-2.577-10.139-3.925-11.267-.4046247-.35031946-.9370515-.51595531-1.469-.457-1.2483618.21947855-2.4180658.76021678-3.394 1.569-.7704747.59356982-.9944439 1.6595444-.528 2.513.5392345 1.09171271.382305 2.39893549-.4 3.332-.7769936 1.16999948-1.2486696 2.51592625-1.372 3.915-.282.1506667-.5606667.3133333-.836.488-1.5963177-.5555002-3.2738002-.8420645-4.964-.848-10.477 0-19 10.767-19 24s8.523 24 19 24c1.6915431-.0054927 3.3704136-.2920632 4.968-.848 3.6438537 2.4641196 8.4201463 2.4641196 12.064 0 1.5975864.5559368 3.2764569.8425073 4.968.848 10.477 0 19-10.767 19-24s-8.523-24-19-24zm-13.168-2.445c1.2104146-1.53770604 1.4024094-3.64377141.49-5.375.6769204-.57654138 1.4870933-.97492509 2.357-1.159 1.08.905 4.312 4.074 3.378 8.8-1.2859217-.5353943-2.6640906-.8142893-4.057-.821-1.0236703.0032974-2.0413849.155904-3.021.453.1792622-.6748312.4673769-1.31591163.853-1.898zm13.168 48.445c-1.0053155-.0045224-2.0068183-.1239646-2.985-.356 2.1738118-2.034789 3.9024748-4.497887 5.077-7.234.1518031-.3266959.1161561-.7097912-.093317-1.0028704s-.5603926-.4508391-.9186404-.4129853c-.3582479.0378538-.6684471.2654699-.8120426.5958557-2.649 5.892-6.862 9.41-11.268 9.41s-8.619-3.518-11.268-9.41c-.1435955-.3303858-.4537947-.5580019-.8120426-.5958557-.3582478-.0378538-.7091673.1199061-.9186404.4129853s-.2451201.6761745-.093317 1.0028704c1.1745252 2.736113 2.9031882 5.199211 5.077 7.234-.9781817.2320354-1.9796845.3514776-2.985.356-9.374 0-17-9.869-17-22s7.626-22 17-22c1.0053155.0045224 2.0068183.1239646 2.985.356-2.1738118 2.034789-3.9024748 4.497887-5.077 7.234-.2182034.5020444.0078095 1.0862224.5070893 1.3106794.4992799.2244569 1.0862353.005758 1.3169107-.4906794 2.649-5.892 6.862-9.41 11.268-9.41s8.619 3.518 11.268 9.41c.2306754.4964374.8176308.7151363 1.3169107.4906794.4992798-.224457.7252927-.808635.5070893-1.3106794-1.1745252-2.736113-2.9031882-5.199211-5.077-7.234.9781817-.2320354 1.9796845-.3514776 2.985-.356 9.374 0 17 9.869 17 22s-7.626 22-17 22z"/><path id="Shape" d="m16 28c-2.206 0-4 2.243-4 5s1.794 5 4 5 4-2.243 4-5-1.794-5-4-5zm0 8c-1.084 0-2-1.374-2-3s.916-3 2-3 2 1.374 2 3-.916 3-2 3z"/><path id="Shape" d="m48 33c0-2.757-1.794-5-4-5s-4 2.243-4 5 1.794 5 4 5 4-2.243 4-5zm-4 3c-1.084 0-2-1.374-2-3s.916-3 2-3 2 1.374 2 3-.916 3-2 3z"/><path id="Shape" d="m13 39h-1c-.5522847 0-1 .4477153-1 1s.4477153 1 1 1h1c.5522847 0 1-.4477153 1-1s-.4477153-1-1-1z"/><path id="Shape" d="m48 39h-1c-.5522847 0-1 .4477153-1 1s.4477153 1 1 1h1c.5522847 0 1-.4477153 1-1s-.4477153-1-1-1z"/><path id="Shape" d="m38.293 41.293-1.586 1.586c-.3958895.3771429-1.0181105.3771429-1.414 0l-.172-.172c-1.1714996-1.1711458-3.0705004-1.1711458-4.242 0l-.172.172c-.3904999.3903819-1.0235001.3903819-1.414 0l-.172-.172c-1.1714996-1.1711458-3.0705004-1.1711458-4.242 0l-.172.172c-.3958895.3771429-1.0181105.3771429-1.414 0l-1.586-1.586c-.3923789-.3789722-1.0160848-.3735524-1.4018186.0121814s-.3911536 1.0094397-.0121814 1.4018186l1.586 1.586c1.1714996 1.1711458 3.0705004 1.1711458 4.242 0l.172-.172c.3958895-.3771429 1.0181105-.3771429 1.414 0l.172.172c1.1714996 1.1711458 3.0705004 1.1711458 4.242 0l.172-.172c.3958895-.3771429 1.0181105-.3771429 1.414 0l.172.172c1.1714996 1.1711458 3.0705004 1.1711458 4.242 0l1.586-1.586c.3789722-.3923789.3735524-1.0160848-.0121814-1.4018186s-1.0094397-.3911536-1.4018186-.0121814z"/><path id="Shape" d="m29.2 34.4-3 4c-.2272632.3030176-.2638192.7084296-.0944272 1.0472136s.5156551.5527864.8944272.5527864h6c.3787721 0 .7250352-.2140024.8944272-.5527864s.132836-.744196-.0944272-1.0472136l-3-4c-.1967934-.2391708-.4902738-.3777478-.8-.3777478s-.6032066.138577-.8.3777478zm-.2 3.6 1-1.333 1 1.333z"/></g><g id="hIGHLIGHST" fill="#fff" transform="translate(22 14)"><path id="Shape" d="m1.579 6c-.37626506-.00195379-.71958403-.21495266-.88844791-.55120287s-.13468535-.73882723.08844791-1.04179713c2.091-2.842 4.657-4.407 7.221-4.407.55228475 0 1 .44771525 1 1s-.44771525 1-1 1c-1.913 0-3.907 1.276-5.615 3.593-.18863861.25614232-.48789098.40725363-.806.407z"/></g></g></g></svg>