<svg height="512" viewBox="0 0 512 512" width="512" xmlns="http://www.w3.org/2000/svg" xmlns:xlink="http://www.w3.org/1999/xlink"><linearGradient id="New_Gradient_Swatch_5" gradientTransform="matrix(1 0 0 -1 272 -2560)" gradientUnits="userSpaceOnUse" x1="-68" x2="185.013" y1="-2740" y2="-2486.987"><stop offset=".011" stop-color="#f8c73f"/><stop offset="1" stop-color="#fada7f"/></linearGradient><linearGradient id="New_Gradient_Swatch_20" gradientUnits="userSpaceOnUse" x1="38" x2="474" y1="486" y2="50"><stop offset=".011" stop-color="#fce6aa"/><stop offset="1" stop-color="#fdf3d4"/></linearGradient><linearGradient id="New_Gradient_Swatch_5-2" gradientTransform="matrix(1 0 0 -1 48 -2560)" x1="-106.203" x2="256" xlink:href="#New_Gradient_Swatch_5" y1="-3290.203" y2="-2928"/><linearGradient id="New_Gradient_Swatch_13" gradientUnits="userSpaceOnUse" x1="182.461" x2="329.539" y1="353.539" y2="206.461"><stop offset="0" stop-color="#d46669"/><stop offset="1" stop-color="#dd888a"/></linearGradient><g id="_11-grade" data-name="11-grade"><g id="linear_color" data-name="linear color"><path d="m496 72a32 32 0 0 0 -32-32h-352a32 32 0 0 1 32 32v48h352z" fill="url(#New_Gradient_Swatch_5)"/><path d="m112 40a32 32 0 0 0 -32 32v392a32 32 0 0 1 -32 32h352a32 32 0 0 0 32-32v-392a32 32 0 0 1 32-32z" fill="url(#New_Gradient_Swatch_20)"/><path d="m368 464v-32h-352v32a32 32 0 0 0 32 32h352a32 32 0 0 1 -32-32z" fill="url(#New_Gradient_Swatch_5-2)"/><circle cx="256" cy="280" fill="url(#New_Gradient_Swatch_13)" r="104"/><path d="m464 28h-352a44.049 44.049 0 0 0 -44 44v348h-52a12 12 0 0 0 -12 12v32a44.049 44.049 0 0 0 44 44h352a44.049 44.049 0 0 0 44-44v-332h52a12 12 0 0 0 12-12v-48a44.049 44.049 0 0 0 -44-44zm-416 456a20.023 20.023 0 0 1 -20-20v-20h328v20a43.739 43.739 0 0 0 4.813 20zm372-20a20 20 0 0 1 -40 0v-32a12 12 0 0 0 -12-12h-276v-348a20.023 20.023 0 0 1 20-20h312.813a43.739 43.739 0 0 0 -4.813 20zm64-356h-40v-36a20 20 0 0 1 40 0z"/><path d="m256 164a116 116 0 1 0 116 116 116.132 116.132 0 0 0 -116-116zm0 208a92 92 0 1 1 92-92 92.1 92.1 0 0 1 -92 92z"/><path d="m255.174 220.424a44.05 44.05 0 0 0 -44 44v64a12 12 0 0 0 24 0v-20h40v20a12 12 0 0 0 24 0v-64a44.05 44.05 0 0 0 -44-44zm20 64h-40v-20a20 20 0 0 1 40 0z"/><path d="m385 108h-20v-20a12 12 0 0 0 -24 0v20h-20a12 12 0 0 0 0 24h20v20a12 12 0 0 0 24 0v-20h20a12 12 0 0 0 0-24z"/><path d="m128 100h160a12 12 0 0 0 0-24h-160a12 12 0 0 0 0 24z"/><path d="m212 136a12 12 0 0 0 -12-12h-72a12 12 0 0 0 0 24h72a12 12 0 0 0 12-12z"/></g></g></svg>