<svg id="Capa_1" enable-background="new 0 0 512 512" height="512" viewBox="0 0 512 512" width="512" xmlns="http://www.w3.org/2000/svg"><g><g><path d="m378.955 8-.007 85.614h-49.204l.007-85.614h-49.149l-.003 85.614h-49.204v-61.485l.003-24.129h-49.149v85.614h-49.204v-85.614h-49.148v496l172.103-53.964 172.103 53.964v-496z" fill="#ff748f"/><g><path d="m83.897 486v18l172.103-53.964 172.103 53.964v-18l-170.607-53.495c-.974-.305-2.018-.305-2.992 0z" fill="#ff577f"/></g><g fill="#dfaa88"><path d="m133.045 17.106h49.204v38.887h-49.204z"/><path d="m329.747 17.106h49.204v38.887h-49.204z"/><path d="m231.396 17.106h49.204v38.887h-49.204z"/><path d="m83.897 17.106h-29.702c-10.738 0-19.443 8.705-19.443 19.443 0 10.738 8.705 19.443 19.443 19.443h29.702z"/><path d="m457.805 17.106h-29.702v38.887h29.702c10.738 0 19.443-8.705 19.443-19.443.001-10.739-8.705-19.444-19.443-19.444z"/></g><g fill="#d99b74"><path d="m133.05 37.99h49.2v18h-49.2z"/><path d="m329.74 37.99h49.21v18h-49.21z"/><path d="m231.39 37.99h49.21v18h-49.21z"/><path d="m83.9 37.99v18h-29.71c-5.37 0-10.23-2.17-13.74-5.69-3.52-3.52-5.7-8.38-5.7-13.75 0-3.25.8-6.31 2.21-9 .92 1.76 2.1 3.36 3.49 4.75 3.51 3.52 8.37 5.69 13.74 5.69z"/><path d="m477.25 36.55c0 10.74-8.71 19.44-19.44 19.44h-29.71v-18h29.71c7.48 0 13.99-4.23 17.23-10.44 1.41 2.69 2.21 5.75 2.21 9z"/></g></g><g><path d="m428.432 249.478c-4.151 0-7.514 3.364-7.514 7.514v237.238l-162.67-51.006c-1.464-.459-3.033-.459-4.497 0l-162.67 51.006v-62.742c0-4.15-3.364-7.514-7.514-7.514s-7.514 3.364-7.514 7.514v72.973c-.132 4.919 5.107 8.767 9.763 7.17l170.184-53.361 170.184 53.362c4.638 1.601 9.901-2.252 9.763-7.17v-247.47c0-4.149-3.364-7.514-7.515-7.514z"/><path d="m83.568 408.946c4.15 0 7.514-3.364 7.514-7.514v-264.1c0-4.15-3.364-7.514-7.514-7.514s-7.514 3.364-7.514 7.514v264.1c-.001 4.15 3.363 7.514 7.514 7.514z"/><path d="m458.191 9.124h-22.244v-1.61c0-4.15-3.364-7.514-7.514-7.514h-49.243c-4.15 0-7.514 3.364-7.514 7.514v1.61h-34.27v-1.609c0-1.993-.792-3.904-2.2-5.314-1.41-1.409-3.321-2.201-5.314-2.201h-49.243c-4.15 0-7.514 3.364-7.514 7.514v1.61h-34.268v-1.608c0-1.994-.792-3.905-2.201-5.314-1.41-1.41-3.322-2.202-5.315-2.202h-49.243c-4.15 0-7.514 3.364-7.514 7.514v1.61h-34.269v-1.61c0-4.15-3.364-7.514-7.514-7.514h-49.243c-4.15 0-7.514 3.364-7.514 7.514v1.61h-22.245c-14.885 0-26.994 12.11-26.994 26.995s12.109 26.995 26.994 26.995h22.244v44.161c0 4.15 3.364 7.514 7.514 7.514s7.514-3.364 7.514-7.514v-92.246h34.214v78.263c0 4.15 3.364 7.514 7.514 7.514h49.298c4.15 0 7.514-3.364 7.514-7.514v-78.263h34.214l-.003 78.263c0 4.15 3.364 7.514 7.514 7.514h49.298c4.15 0 7.514-3.364 7.514-7.514l.003-78.264h34.214l-.006 78.263c-.08 4.037 3.478 7.595 7.514 7.515h49.298c4.15 0 7.514-3.364 7.514-7.514l.006-78.264h34.215v211.907c0 4.15 3.364 7.514 7.514 7.514s7.514-3.364 7.514-7.514v-163.821h22.244c14.885 0 26.994-12.11 26.994-26.995s-12.106-26.995-26.991-26.995zm-404.382 38.961c-6.598 0-11.965-5.368-11.965-11.966s5.368-11.966 11.965-11.966h22.244v23.932zm120.785-23.932v23.932h-34.269v-23.932zm-34.27 61.625v-22.664h34.269v22.664zm132.809-61.625-.001 23.932h-34.268l.001-23.932zm-34.271 61.625.001-22.664h34.269l-.001 22.664zm98.543-61.625h34.269v2.084l-.004 21.849h-34.267l.002-21.849zm-.005 61.625.002-22.664h34.27l-.002 22.664zm120.791-37.693h-22.244v-23.932h22.244c6.598 0 11.965 5.368 11.965 11.966s-5.367 11.966-11.965 11.966z"/><path d="m151.78 179.696c-3.139.979-5.278 3.885-5.278 7.174v64.182c0 4.15 3.364 7.514 7.514 7.514 4.151 0 7.514-3.364 7.514-7.514v-40.076l29.699 43.007c2.23 3.221 5.946 4.59 9.451 3.495 3.59-1.121 5.909-4.494 5.909-8.666l-.601-62.135c-.041-4.15-3.442-7.528-7.587-7.441-4.151.04-7.482 3.437-7.442 7.587l.396 40.894-31.155-45.117c-1.869-2.707-5.277-3.88-8.42-2.904z"/><path d="m262.556 194.558c4.15 0 7.514-3.364 7.514-7.514s-3.364-7.514-7.514-7.514h-26.847c-4.15 0-7.514 3.364-7.514 7.514v63.714c0 4.15 3.364 7.514 7.514 7.514h26.847c4.15 0 7.514-3.364 7.514-7.514s-3.364-7.514-7.514-7.514h-19.333v-16.829h17.353c4.151 0 7.514-3.364 7.514-7.514s-3.364-7.514-7.514-7.514h-17.353v-16.828h19.333z"/><path d="m363.956 179.498c-4.07-.809-8.026 1.833-8.836 5.903l-7.855 39.469-12.425-40.332c-1.094-3.554-4.629-5.768-8.3-5.218-3.166.477-5.622 2.885-6.243 5.919l-12.269 39.637-7.83-39.584c-.806-4.071-4.758-6.719-8.829-5.913-4.071.805-6.719 4.759-5.914 8.83l12.529 63.336c.07.358.167.71.29 1.054 1.275 3.594 4.683 6.04 8.507 5.968 3.814-.025 7.201-2.467 8.43-6.078.022-.066.044-.132.065-.198l12.384-40.012 12.329 40.021c.032.102.066.204.102.305 1.27 3.573 4.659 5.963 8.447 5.963h.062c3.813-.026 7.199-2.469 8.427-6.078.106-.312.192-.63.255-.954l12.578-63.2c.809-4.071-1.834-8.028-5.904-8.838z"/><path d="m280.113 304.881c-.023.058-.046.115-.069.174l-24.144 63.395c-1.477 3.878.47 8.22 4.348 9.697 3.873 1.478 8.219-.469 9.696-4.348l4.17-10.949h28.421l4.124 10.928c1.461 3.922 5.902 5.834 9.684 4.378 3.882-1.465 5.842-5.801 4.376-9.684l-23.926-63.399c-.025-.069-.053-.138-.081-.206-1.389-3.377-4.646-5.558-8.296-5.558-.003 0-.006 0-.008 0-3.653.003-6.909 2.19-8.295 5.572zm16.751 42.941h-17.026l8.552-22.454z"/><path d="m202.311 307.117v63.715c0 4.15 3.364 7.514 7.514 7.514h26.847c4.151 0 7.514-3.364 7.514-7.514s-3.364-7.514-7.514-7.514h-19.333v-16.829h17.354c4.15 0 7.514-3.364 7.514-7.514s-3.364-7.514-7.514-7.514h-17.354v-16.829h19.333c4.151 0 7.514-3.364 7.514-7.514s-3.364-7.514-7.514-7.514h-26.847c-4.151-.002-7.514 3.363-7.514 7.513z"/><path d="m136.365 300.531c-3.474 2.269-4.453 6.925-2.184 10.4l19.312 29.576-.075 30.599c-.01 4.151 3.346 7.523 7.496 7.533h.019c4.142 0 7.505-3.352 7.514-7.496l.075-30.626 19.159-29.432c2.264-3.478 1.281-8.133-2.198-10.397-3.477-2.263-8.132-1.28-10.397 2.198l-14.083 21.634-14.237-21.805c-2.271-3.476-6.924-4.453-10.401-2.184z"/><path d="m383.546 323.535c0-13.358-11.292-24.226-25.171-24.226h-17.087c-.004 0-.007.001-.011.001s-.007-.001-.011-.001c-4.151 0-7.514 3.364-7.514 7.514v64.302c0 4.15 3.364 7.514 7.514 7.514s7.514-3.364 7.514-7.514v-19.589l21.611 24.553c2.75 3.124 7.502 3.41 10.605.676 3.115-2.742 3.418-7.49.676-10.605l-16.896-19.197c10.789-2.732 18.77-12.199 18.77-23.428zm-25.171 9.196c-2.208 0-9.498.033-9.498.033l-.053-18.427h9.551c5.498 0 10.142 4.212 10.142 9.197 0 4.986-4.644 9.197-10.142 9.197z"/></g></g></svg>