<svg height="511pt" viewBox="0 0 511.99775 511" width="511pt" xmlns="http://www.w3.org/2000/svg"><path d="m499.742188 216.328125c-26.570313-13.300781-37.386719-45.574219-24.199219-72.195313 2.746093-5.542968-.917969-12.117187-7.074219-12.703124-29.578125-2.804688-51.324219-28.988282-48.644531-58.578126.558593-6.160156-5.230469-10.96875-11.183594-9.289062-28.59375 8.070312-58.332031-8.492188-66.523437-37.050781-1.703126-5.945313-8.839844-8.335938-13.78125-4.621094-23.746094 17.855469-57.460938 13.152344-75.414063-10.519531-3.738281-4.929688-11.253906-4.578125-14.519531.671875-15.695313 25.226562-48.828125 33.019531-74.121094 17.433593-5.265625-3.246093-12.152344-.207031-13.300781 5.871094-5.519531 29.191406-33.601563 48.429688-62.816407 43.03125-6.082031-1.125-11.402343 4.195313-10.28125 10.28125 5.398438 29.214844-13.839843 57.296875-43.03125 62.816406-6.078124 1.148438-9.117187 8.03125-5.871093 13.296876 15.585937 25.292968 7.792969 58.429687-17.433594 74.121093-5.25 3.269531-5.597656 10.785157-.667969 14.523438 23.667969 17.953125 28.371094 51.664062 10.519532 75.414062-3.71875 4.941407-1.328126 12.078125 4.617187 13.78125 28.558594 8.191407 45.125 37.929688 37.054687 66.523438-1.679687 5.953125 3.125 11.738281 9.285157 11.183593 29.589843-2.679687 55.777343 19.066407 58.582031 48.644532.582031 6.15625 7.15625 9.816406 12.699219 7.074218 26.625-13.1875 58.898437-2.371093 72.195312 24.195313 2.769531 5.53125 10.222657 6.570313 14.398438 2.007813 20.0625-21.910157 54.066406-23.484376 76.0625-3.515626 4.582031 4.15625 11.90625 2.433594 14.152343-3.328124 10.789063-27.679688 41.929688-41.429688 69.65625-30.757813 5.769532 2.222656 11.980469-2.027344 11.992188-8.214844.0625-29.710937 24.132812-53.777343 53.84375-53.839843 6.183594-.015626 10.4375-6.222657 8.214844-11.996094-10.675782-27.726563 3.074218-58.863282 30.753906-69.65625 5.765625-2.246094 7.488281-9.570313 3.332031-14.148438-19.972656-22-18.398437-56 3.515625-76.0625 4.558594-4.171875 3.519532-11.625-2.011718-14.394531zm0 0" fill="#ffe176"/><path d="m446.988281 256.496094c0 105.480468-85.507812 190.992187-190.988281 190.992187s-190.988281-85.511719-190.988281-190.992187c0-105.480469 85.507812-190.988282 190.988281-190.988282s190.988281 85.507813 190.988281 190.988282zm0 0" fill="#ffc261"/><path d="m105.027344 256.496094c0-98.722656 74.90625-179.945313 170.980468-189.949219-6.574218-.683594-13.25-1.039063-20.007812-1.039063-105.480469 0-190.988281 85.507813-190.988281 190.988282 0 105.480468 85.507812 190.988281 190.988281 190.988281 6.757812 0 13.433594-.355469 20.007812-1.039063-96.074218-10.003906-170.980468-91.226562-170.980468-189.949218zm0 0" fill="#fda756"/><path d="m433.027344 175.417969c-114.546875-16.941407-109.820313 9.847656-177.027344 9.847656s-62.480469-26.789063-177.027344-9.847656c-8.476562 1.253906-14.21875 9.300781-12.636718 17.722656l.277343 1.457031c.617188 3.28125 2.335938 6.234375 4.800781 8.484375 4.824219 4.40625 13.035157 15.878907 16.214844 44.191407 4.628906 41.1875 45.941406 52.292968 69.476563 52.292968 23.417969 2.371094 65.636719-4.519531 74.390625-45.027344 3-13.882812 6.824218-23.476562 10.550781-30.089843 6.105469-10.832031 21.800781-10.832031 27.910156 0 3.726563 6.613281 7.550781 16.207031 10.550781 30.089843 8.75 40.507813 50.972657 47.398438 74.390626 45.027344 23.535156 0 64.847656-11.105468 69.476562-52.292968 3.179688-28.3125 11.390625-39.785157 16.214844-44.191407 2.464844-2.25 4.183594-5.203125 4.800781-8.484375l.273437-1.457031c1.582032-8.421875-4.160156-16.464844-12.636718-17.722656zm0 0" fill="#f55d67"/><path d="m121.992188 200.855469c16.316406-1.957031 47.214843-4.179688 78.59375 7.546875 4.234374 1.582031 7.007812 5.679687 6.914062 10.203125-.332031 16.210937-5.640625 52.441406-49.667969 52.792969-41.378906.332031-44.988281-38.707032-45.230469-59.820313-.0625-5.449219 3.980469-10.074219 9.390626-10.722656zm0 0" fill="#5d5360"/><path d="m142.617188 211.578125c-.0625-5.449219 3.976562-10.074219 9.386718-10.726563 2.796875-.332031 6.035156-.675781 9.617188-.957031-16.214844-1.359375-30.308594-.160156-39.628906.957031-5.410157.652344-9.453126 5.277344-9.390626 10.726563.242188 21.109375 3.851563 60.152344 45.230469 59.820313 5.746094-.046876 10.820313-.714844 15.324219-1.859376-27.589844-7.964843-30.328125-39.679687-30.539062-57.960937zm0 0" fill="#4b3f4e"/><path d="m390.007812 200.855469c-16.316406-1.957031-47.214843-4.179688-78.59375 7.546875-4.238281 1.582031-7.007812 5.679687-6.914062 10.203125.332031 16.210937 5.640625 52.441406 49.667969 52.792969 41.378906.332031 44.988281-38.707032 45.230469-59.820313.0625-5.449219-3.980469-10.074219-9.390626-10.722656zm0 0" fill="#5d5360"/><path d="m334.511719 208.601562c-.050781-2.617187.855469-5.082031 2.445312-7.011718-8.28125 1.410156-16.890625 3.578125-25.542969 6.8125-4.238281 1.582031-7.007812 5.679687-6.914062 10.203125.332031 16.210937 5.640625 52.441406 49.667969 52.792969 5.878906.046874 10.992187-.703126 15.445312-2.078126-30.6875-9.210937-34.808593-46.507812-35.101562-60.71875zm0 0" fill="#4b3f4e"/><path d="m6.339844 259.40625c20.320312 15.414062 24.382812 44.539062 9.054687 64.925781-6.75 8.976563-2.214843 22.417969 8.550781 25.503907 24.515626 7.03125 38.824219 32.722656 31.898438 57.269531-1.625 5.75.160156 12.300781 4.5625 16.375 4.640625 4.289062 10.945312 4.128906 16.871094 4.128906 24.054687 0 43.910156 18.085937 46.183594 42.070313 1.0625 11.179687 13.453124 18.070312 23.5 13.09375 22.679687-11.238282 50.847656-1.761719 62.15625 20.832031 5.023437 10.039062 19.0625 11.996093 26.640624 3.714843 17.03125-18.605468 46.828126-19.964843 65.484376-3.027343 8.367187 7.59375 22.101562 4.324219 26.1875-6.15625 9.148437-23.46875 36.460937-35.53125 59.96875-26.480469 10.507812 4.042969 22.167968-3.941406 22.191406-15.203125.054687-25.503906 20.847656-46.300781 46.351562-46.351563 11.246094-.027343 19.246094-11.699218 15.203125-22.195312-9.160156-23.800781 2.714844-50.703125 26.480469-59.96875 10.476562-4.082031 13.714844-17.859375 6.15625-26.183594-17.140625-18.886718-15.78125-48.261718 3.027344-65.484375 8.308594-7.605469 6.328125-21.617187-3.714844-26.644531-22.808594-11.417969-32.152344-39.300781-20.832031-62.15625 4.988281-10.074219-1.9375-22.445312-13.089844-23.5-25.390625-2.40625-44.179687-25.03125-41.878906-50.433594 1.011719-11.195312-9.871094-20.242187-20.695313-17.183594-24.121094 6.808594-50.300781-7.605468-57.269531-31.898437-3.09375-10.78125-16.554687-15.277344-25.503906-8.550781-20.214844 15.195312-49.675781 11.050781-64.925781-9.054688-6.8125-8.980468-20.929688-8.3125-26.871094 1.238282-13.316406 21.40625-42.347656 28.242187-63.8125 15.011718-9.605469-5.917968-22.519532-.1875-24.609375 10.863282-4.664063 24.671874-29.421875 41.609374-54.082031 37.050781-11.058594-2.046875-21.0625 7.972656-19.023438 19.019531 4.636719 25.082031-11.984375 49.34375-37.042969 54.082031-11.042969 2.089844-16.773437 15.027344-10.867187 24.609375 13.378906 21.714844 6.648437 50.339844-15.007813 63.8125-9.558593 5.945313-10.199219 20.082032-1.242187 26.871094zm9.167968-14.128906c28.652344-17.824219 37.5625-55.699219 19.859376-84.429688-.484376-.78125-.019532-1.820312.875-1.988281 33.160156-6.269531 55.148437-38.371094 49.015624-71.554687-.164062-.894532.640626-1.703126 1.539063-1.539063 3.707031.6875 7.484375 1.03125 11.226563 1.03125 29.472656 0 54.84375-21.046875 60.328124-50.046875.171876-.898438 1.214844-1.355469 1.988282-.878906 9.710937 5.984375 20.839844 9.144531 32.195312 9.144531 21.410156 0 40.9375-10.839844 52.234375-29 .484375-.777344 1.625-.824219 2.171875-.101563 11.726563 15.457032 29.585938 24.324219 49.007813 24.320313 13.402343 0 26.160156-4.265625 36.894531-12.335937.734375-.554688 1.808594-.191407 2.0625.691406 7.519531 26.214844 31.800781 44.527344 59.046875 44.527344 5.632813 0 11.257813-.78125 16.726563-2.324219.886718-.253907 1.75.496093 1.671874 1.390625-3.042968 33.605468 21.8125 63.539062 55.40625 66.722656.914063.085938 1.464844 1.082031 1.058594 1.902344-14.976562 30.238281-2.613281 67.128906 27.5625 82.234375.414063.207031.652344.542969.71875 1 .0625.457031-.078125.84375-.417968 1.15625-24.886719 22.785156-26.6875 61.652343-4.003907 86.640625.621094.679687.355469 1.78125-.5 2.113281-31.4375 12.257813-47.15625 47.851563-35.03125 79.34375.3125.8125-.285156 1.792969-1.230469 1.792969-33.742187.074218-61.253906 27.585937-61.328124 61.332031 0 .917969-.945313 1.554687-1.792969 1.226563-7.097657-2.730469-14.523438-4.117188-22.070313-4.117188-25.519531 0-48 15.367188-57.273437 39.152344-.335938.859375-1.4375 1.113281-2.117188.496094-11.332031-10.289063-25.996093-15.953126-41.292969-15.953126-17.203124 0-33.730468 7.273438-45.34375 19.957032-.625.683594-1.746093.523437-2.15625-.296875-10.484374-20.949219-31.558593-33.960938-55-33.960938-9.5 0-18.664062 2.152344-27.234374 6.394531-.828126.410157-1.8125-.140624-1.902344-1.054687-1.453125-15.324219-8.53125-29.445313-19.933594-39.761719-11.332031-10.253906-25.960938-15.902344-41.1875-15.902344-1.859375 0-3.742188.085938-5.605469.253907-.914062.082031-1.632812-.800781-1.386719-1.675781 9.164063-32.476563-9.765624-66.464844-42.203124-75.769532-.878907-.25-1.238282-1.335937-.691407-2.0625 20.277344-26.972656 14.902344-65.507812-11.984375-85.898437-.730468-.554688-.675781-1.691407.097656-2.171875zm0 0"/><path d="m157.308594 278.914062.582031-.003906c27.171875-.214844 40.851563-13.175781 47.542969-24.007812 7.542968-12.21875 9.367187-26.394532 9.566406-36.132813.15625-7.707031-4.582031-14.691406-11.792969-17.386719-17.027343-6.363281-35.972656-9.589843-56.304687-9.589843-8.277344 0-16.71875.53125-25.808594 1.621093-9.226562 1.109376-16.101562 8.957032-15.996094 18.257813.125 10.960937 1.078125 27.132813 7.871094 41.011719 8.402344 17.15625 23.734375 26.230468 44.339844 26.230468zm-34.425782-70.601562c8.488282-1.019531 16.347657-1.515625 24.019532-1.515625 18.535156 0 35.710937 2.910156 51.050781 8.640625 1.25.46875 2.070313 1.679688 2.039063 3.023438-.417969 20.582031-8.085938 45.171874-42.222657 45.441406l-.460937.003906c-24.972656 0-36.796875-16.652344-37.207032-52.40625-.019531-1.625 1.179688-2.996094 2.78125-3.1875zm0 0"/><path d="m354.105469 278.910156.578125.003906h.007812c20.601563 0 35.933594-9.070312 44.332032-26.230468 6.796874-13.878906 7.746093-30.054688 7.875-41.011719.105468-9.300781-6.773438-17.152344-16-18.257813-9.089844-1.089843-17.53125-1.621093-25.808594-1.621093-20.332032 0-39.277344 3.226562-56.304688 9.589843-7.210937 2.691407-11.949218 9.679688-11.789062 17.386719.199218 9.738281 2.019531 23.914063 9.566406 36.128907 6.691406 10.835937 20.367188 23.796874 47.542969 24.011718zm-40.066407-63.472656c15.34375-5.730469 32.519532-8.640625 51.050782-8.640625 7.675781 0 15.53125.496094 24.023437 1.515625 1.601563.191406 2.796875 1.5625 2.777344 3.1875-.410156 35.753906-12.226563 52.40625-37.199219 52.40625h-.003906l-.464844-.003906c-34.132812-.269532-41.800781-24.859375-42.222656-45.441406-.027344-1.34375.792969-2.554688 2.039062-3.023438zm0 0"/><path d="m268.921875 288.636719c-3.140625 3.59375-7.851563 5.652343-12.925781 5.652343-5.074219 0-9.785156-2.0625-12.925782-5.652343-2.726562-3.121094-7.46875-3.4375-10.585937-.710938-3.121094 2.726563-3.441406 7.464844-.710937 10.585938 5.988281 6.855469 14.820312 10.785156 24.222656 10.785156 9.40625 0 18.234375-3.929687 24.226562-10.78125 2.726563-3.121094 2.40625-7.863281-.710937-10.589844-3.121094-2.726562-7.863281-2.410156-10.589844.710938zm0 0"/><path d="m255.996094 455c47.921875 0 94.195312-17.316406 130.296875-48.757812 3.125-2.71875 3.453125-7.460938.730469-10.585938-2.722657-3.125-7.460938-3.453125-10.585938-.730469-33.371094 29.0625-76.144531 45.066407-120.441406 45.066407-101.175782 0-183.488282-82.3125-183.488282-183.488282 0-10.769531.933594-21.46875 2.785157-31.992187 1.617187 4.808593 3.121093 10.914062 4.238281 18.632812.238281 1.648438.636719 3.304688.636719 4.976563 2.015625 17.929687 10.574219 32.683594 24.890625 43.082031 17.902344 12.996094 41.515625 16.824219 63.203125 16.25.113281-.003906.222656-.007813.332031-.007813 32.042969-.988281 63.027344-18.109374 70.21875-51.253906.003906-.019531.007812-.039062.011719-.058594 2.488281-11.503906 5.765625-20.917968 9.753906-27.988281 3.152344-5.59375 11.707031-5.558593 14.835937-.003906 3.988282 7.074219 7.269532 16.488281 9.753907 27.992187 4.28125 19.808594 17.527343 35.648438 35.980469 43.863282 16.0625 7.152344 35.234374 8.132812 52.578124 6.808594.128907-.011719.257813-.019532.390626-.03125 33.695312-2.699219 65.695312-22.933594 69.707031-58.652344.1875-1.660156.402343-3.320313.640625-4.976563 1.113281-7.71875 2.617187-13.824219 4.238281-18.632812 1.847656 10.519531 2.78125 21.222656 2.78125 31.992187 0 43.261719-15.351563 85.269532-43.230469 118.289063-2.675781 3.164062-2.273437 7.898437.890625 10.574219 3.167969 2.671874 7.902344 2.273437 10.574219-.894532 30.160156-35.722656 46.773438-81.167968 46.773438-127.96875 0-17.082031-2.179688-34.015625-6.46875-50.398437 2.410156-2.945313 4.035156-6.382813 4.734374-10.109375 2.441407-12.957032-5.09375-25.988282-18.632812-27.992188-.164062-.023437-.324219-.046875-.488281-.070312-15.917969-31.882813-40.078125-58.90625-70.125-78.308594-32.035157-20.683594-69.214844-31.613281-107.511719-31.613281-35.628906 0-70.578125 9.554687-101.074219 27.636719-3.5625 2.113281-4.738281 6.714843-2.628906 10.277343 2.117187 3.566407 6.71875 4.742188 10.28125 2.628907 28.179687-16.707032 60.484375-25.535157 93.421875-25.535157 35.40625 0 69.765625 10.101563 99.371094 29.214844 24.863281 16.054687 45.382812 37.742187 59.972656 63.246094-17.765625-2.128907-33.21875-3.171875-46.875-3.171875-26.976562 0-43.035156 4.070312-58.5625 8.007812-17.148438 4.347656-34.492188 7.414063-52.226562 7.425782-18.765626.011718-37.425782-2.839844-55.589844-7.429688-15.53125-3.933594-31.589844-8.007812-58.558594-8.007812-13.652344 0-29.101562 1.042968-46.863281 3.171874 11.117187-19.367187 25.84375-36.800781 43.144531-50.976562 3.207031-2.625 3.675781-7.355469 1.050781-10.5625-2.628906-3.203125-7.355469-3.671875-10.5625-1.046875-21.609375 17.707031-39.503906 40.136719-51.957031 65.046875-.160156.023438-.3125.042969-.46875.066406-17.46875 2.589844-24.820312 24.753906-13.90625 38.101563-4.285156 16.386719-6.464844 33.316406-6.464844 50.398437 0 109.449219 89.042969 198.496094 198.492188 198.496094zm-181.011719-269.039062c2.230469-3.132813 5.917969-3.242188 9.398437-3.734376 19.585938-2.761718 39.34375-4.910156 59.144532-4.910156 36.714844 0 71.011718 14.707032 107.644531 15.417969 3.292969.0625 6.585937.058594 9.878906-.007813 24.839844-.507812 47.871094-7.808593 72.039063-12.347656 32.585937-6.121094 66.332031-2.335937 98.835937 2.472656 7.027344 1.039063 8.402344 10.304688 3.59375 14.699219-13.1875 12.058594-16.707031 31.960938-18.609375 48.894531-2.148437 19.132813-13.554687 30.8125-26.945312 37.5625-22.691406 11.433594-56.597656 12.488282-79.058594.113282-11.957031-6.589844-20.195312-17.851563-23.070312-31.160156-3.585938-16.59375-10.273438-44.132813-31.839844-44.132813-.132813 0-.261719.011719-.390625.011719-21.195313.363281-27.910157 27.753906-31.449219 44.121094-2.882812 13.34375-11.070312 24.460937-22.996094 31.113281-23.171875 12.816406-55.71875 11.730469-79.136718-.066407-13.386719-6.75-24.792969-18.429687-26.941407-37.5625-1.851562-16.464843-5.597656-37.003906-18.613281-48.894531-2.992188-2.734375-3.910156-8.183593-1.484375-11.589843zm0 0"/></svg>