<svg id="Layer_3" enable-background="new 0 0 64 64" height="512" viewBox="0 0 64 64" width="512" xmlns="http://www.w3.org/2000/svg"><g><path d="m17 34v.464c0 2.264-.899 4.435-2.5 6.036-1.601 1.601-2.5 3.772-2.5 6.036v9.464c0 3.314 2.686 6 6 6h20c3.314 0 6-2.686 6-6v-9.464c0-2.264-.899-4.435-2.5-6.036-1.601-1.601-2.5-3.772-2.5-6.036v-.464" fill="#758190"/><path d="m34.975 34h-17.975v.464c0 2.264-.899 4.435-2.5 6.036s-2.5 3.772-2.5 6.036v9.464c0 .661.111 1.295.308 1.89 12.397-1.136 22.171-11.318 22.667-23.89z" fill="#8892a0"/><path d="m36 56h-16c-1.105 0-2-.895-2-2v-8c0-1.105.895-2 2-2h16c1.105 0 2 .895 2 2v8c0 1.105-.895 2-2 2z" fill="#d5cec2"/><path d="m32.452 44h-12.452c-1.105 0-2 .895-2 2v8c0 1.051.814 1.903 1.844 1.984 5.5-2.358 9.981-6.633 12.608-11.984z" fill="#e7e4dd"/><path d="m38 49v5c0 1.105-.895 2-2 2h-16c-1.105 0-2-.895-2-2v-2l3.034-2.276c.627-.47 1.39-.724 2.173-.724h.293c.96 0 1.882.382 2.561 1.061l.879.879c.678.678 1.6 1.06 2.56 1.06.96 0 1.882-.382 2.561-1.061l.879-.879c.678-.678 1.6-1.06 2.56-1.06z" fill="#606060"/><path d="m26.939 50.939-.879-.879c-.678-.678-1.6-1.06-2.56-1.06h-.293c-.784 0-1.546.254-2.173.724l-3.034 2.276v2c0 1.051.814 1.903 1.844 1.984 2.735-1.173 5.216-2.823 7.345-4.841-.083-.068-.173-.127-.25-.204z" fill="#7c7b7b"/><path d="m39 34h-22c-1.105 0-2-.895-2-2v-4c0-1.105.895-2 2-2h22c1.105 0 2 .895 2 2v4c0 1.105-.895 2-2 2z" fill="#a8b0bc"/><path d="m15 28v4c0 1.105.895 2 2 2h17.975c.013-.332.025-.665.025-1 0-2.431-.354-4.778-1.001-7h-16.999c-1.105 0-2 .895-2 2z" fill="#c1c8d1"/><path d="m17 34v.464c0 1.232-.266 2.436-.767 3.536h-.001 23.534c-.5-1.1-.766-2.304-.766-3.536v-.464z" fill="#d5cec2"/><path d="m41 30h-26v2c0 1.105.895 2 2 2h22c1.105 0 2-.895 2-2z" fill="#758190"/><path d="m31.707 19.613c-.391-.538-.493-1.243-.254-1.878l1.195-3.187c.921-2.455 2.357-4.685 4.211-6.54 2.15-2.15 4.799-3.732 7.711-4.606l4.337-1.301c.847-.254 1.764-.023 2.389.602.625.625.856 1.543.602 2.389l-1.301 4.338c-.874 2.912-2.456 5.562-4.606 7.711-1.854 1.854-4.084 3.29-6.54 4.211l-3.187 1.195c-.734.275-1.562.096-2.116-.458l-.118-.119" fill="#e39854"/><path d="m25 26 19.988-19.037c.563-.536 1.45-.525 1.999.024.559.559.559 1.465 0 2.024l-16.987 16.989" fill="#fadfb2"/><path d="m27 16-4.265-.853c-.561-.112-1.077-.388-1.482-.793l-.404-.404c-1.132-1.132-1.132-2.968 0-4.101 1.132-1.132 2.968-1.132 4.101 0l.404.404c.405.405.681.92.793 1.482z" fill="#606060"/><path d="m19.394 22h-.394c-1.105 0-2-.895-2-2 0-1.105.895-2 2-2h.394c.395 0 .781.117 1.109.336l2.497 1.664-2.496 1.664c-.329.219-.715.336-1.11.336z" fill="#606060"/><path d="m15 32c0 1.105.895 2 2 2h17.975c.013-.332.025-.665.025-1 0-1.016-.068-2.016-.185-3h-19.815z" fill="#8892a0"/><g fill="#e7e4dd"><path d=""/><path d="m34.975 34h-17.975v.464c0 1.232-.266 2.436-.767 3.536h18.266c.264-1.299.422-2.636.476-4z"/></g><g><path d="m35.999 43h-15.999c-1.654 0-3 1.346-3 3v8c0 1.654 1.346 3 3 3h16c1.654 0 3-1.346 3-3v-8c-.001-1.654-1.347-3-3.001-3zm-15.999 2h16c.552 0 1 .448 1 1v2h-1.5c-1.234 0-2.395.48-3.268 1.353l-.878.878c-.974.977-2.729.979-3.707 0l-.878-.878c-.874-.873-2.035-1.353-3.269-1.353h-.293c-.994 0-1.979.328-2.773.924l-1.434 1.076v-4c0-.552.448-1 1-1zm15.999 10h-15.999c-.552 0-1-.448-1-1v-1.5l2.634-1.976c.45-.338 1.009-.524 1.573-.524h.293c.69 0 1.365.28 1.853.768l.878.878c.873.873 2.034 1.354 3.269 1.354 1.216 0 2.407-.493 3.268-1.354l.878-.878c.488-.488 1.163-.768 1.853-.768h1.5v4c0 .551-.448 1-1 1z"/><path d="m52.003 1.996c-.886-.886-2.18-1.211-3.384-.853l-4.337 1.301c-3.06.918-5.872 2.597-8.131 4.856-1.968 1.969-3.462 4.289-4.44 6.896l-1.195 3.187c-.246.655-.238 1.358-.021 2.002l-5.896 5.615h-7.599c-1.654 0-3 1.346-3 3v4c0 1.296.83 2.392 1.983 2.81-.085 1.882-.849 3.641-2.191 4.982-1.801 1.801-2.792 4.196-2.792 6.743v9.465c0 1.87.728 3.627 2.05 4.95s3.08 2.05 4.95 2.05h19.999c3.86 0 7-3.14 7-7v-9.464c0-2.547-.992-4.942-2.792-6.742-1.341-1.341-2.105-3.101-2.191-4.983 1.153-.419 1.983-1.515 1.983-2.81v-4c0-1.654-1.346-3-3-3h-6.585l1.71-1.71c.444.244.938.383 1.442.383.353 0 .708-.062 1.05-.19l3.188-1.195c2.607-.978 4.927-2.472 6.896-4.44 2.259-2.259 3.938-5.071 4.856-8.131l1.301-4.337c.359-1.202.032-2.498-.854-3.385zm-13.978 33.004c.038.683.145 1.353.323 2h-20.697c.178-.648.285-1.317.322-2zm.974-2h-21.999c-.552 0-1-.448-1-1v-1h24v1c-.001.551-.449 1-1.001 1zm4 13.535v9.465c0 2.757-2.243 5-5 5h-19.999c-1.336 0-2.592-.52-3.536-1.464s-1.464-2.201-1.464-3.536v-9.464c0-2.013.784-3.905 2.207-5.329.662-.663 1.213-1.407 1.647-2.207h22.291c.434.801.985 1.545 1.648 2.208 1.423 1.422 2.206 3.314 2.206 5.327zm-3-18.535v1h-23.999v-1c0-.552.448-1 1-1h22c.551 0 .999.448.999 1zm-12.5-3 18.179-17.313c.172-.163.436-.158.603.008.109.109.126.238.126.305s-.017.195-.127.304l-16.696 16.696zm23.441-20.195-1.301 4.337c-.823 2.744-2.329 5.266-4.355 7.292-1.765 1.766-3.846 3.105-6.183 3.982l-3.188 1.195c-.046.018-.094.021-.142.031l11.924-11.923c.459-.459.712-1.07.712-1.719s-.253-1.26-.712-1.719c-.942-.94-2.432-.958-3.396-.042l-11.617 11.063.901-2.403c.877-2.338 2.216-4.418 3.982-6.184 2.026-2.026 4.547-3.532 7.292-4.355l4.337-1.301c.497-.147 1.029-.014 1.395.352.365.365.5.9.351 1.394z"/><path d="m20.546 15.061c.546.546 1.235.915 1.993 1.066l4.265.853c.064.013.13.02.196.02.262 0 .518-.104.707-.293.236-.236.339-.575.273-.903l-.853-4.265c-.152-.757-.521-1.446-1.066-1.993l-.404-.404c-1.519-1.52-3.993-1.52-5.515 0-1.521 1.521-1.521 3.995 0 5.515zm1.01-4.505c.37-.37.857-.556 1.343-.556.487 0 .973.185 1.343.556l.404.404c.266.266.446.602.52.97l.559 2.794-2.794-.559c-.369-.074-.705-.253-.97-.52l-.404-.404c-.36-.357-.557-.834-.557-1.342 0-.507.197-.984.556-1.343z"/><path d="m19 23h.394c.594 0 1.17-.174 1.665-.503l2.496-1.664c.278-.186.445-.498.445-.832s-.167-.647-.445-.832l-2.496-1.665c-.495-.33-1.071-.504-1.665-.504h-.394c-1.654 0-3 1.346-3 3s1.345 3 3 3zm0-4h.394c.199 0 .391.058.555.167l1.248.833-1.249.832c-.164.11-.356.168-.554.168h-.394c-.552 0-1-.448-1-1s.448-1 1-1z"/></g></g></svg>