<?xml version="1.0" encoding="iso-8859-1"?>
<!-- Generator: Adobe Illustrator 19.0.0, SVG Export Plug-In . SVG Version: 6.00 Build 0)  -->
<svg xmlns="http://www.w3.org/2000/svg" xmlns:xlink="http://www.w3.org/1999/xlink" version="1.1" id="Capa_1" x="0px" y="0px" viewBox="0 0 510 510" style="enable-background:new 0 0 510 510;" xml:space="preserve" width="512" height="512">
<g>
	<g>
		<rect x="7.5" y="148.125" style="fill:#FEF0BD;" width="35.625" height="240"/>
	</g>
	<g>
		<circle style="fill:#FEF0BD;" cx="105" cy="150" r="22.5"/>
	</g>
	<g>
		<circle style="fill:#66E299;" cx="180" cy="150" r="22.5"/>
	</g>
	<g>
		<circle style="fill:#7EF5F5;" cx="255" cy="150" r="22.5"/>
	</g>
	<g>
		<circle style="fill:#7EF5F5;" cx="300" cy="330" r="22.5"/>
	</g>
	<g>
		<circle style="fill:#66E299;" cx="375" cy="330" r="22.5"/>
	</g>
	<g>
		<circle style="fill:#FEF0BD;" cx="450" cy="330" r="22.5"/>
	</g>
	<g>
		<circle style="fill:#66E299;" cx="350.625" cy="210" r="22.5"/>
	</g>
	<g>
		<circle style="fill:#FF9C43;" cx="142.5" cy="330" r="22.5"/>
	</g>
	<g>
		<circle style="fill:#FF9C43;" cx="435" cy="210" r="22.5"/>
	</g>
	<g>
		<path d="M465,127.5h22.5v-15H450v71.536c-4.416-2.561-9.538-4.036-15-4.036c-13.953,0-25.712,9.575-29.051,22.5h-26.273    c-3.339-12.925-15.098-22.5-29.051-22.5s-25.712,9.575-29.051,22.5H52.5v-45h23.449C79.288,170.425,91.047,180,105,180    s25.712-9.575,29.051-22.5h16.898C154.288,170.425,166.047,180,180,180s25.712-9.575,29.051-22.5h16.898    C229.288,170.425,241.047,180,255,180s25.712-9.575,29.051-22.5H435v-15H284.051C280.712,129.575,268.953,120,255,120    s-25.712,9.575-29.051,22.5h-16.898C205.712,129.575,193.953,120,180,120s-25.712,9.575-29.051,22.5h-16.898    C130.712,129.575,118.953,120,105,120s-25.712,9.575-29.051,22.5H0v255h510v-15H52.5v-45h60.949    c3.339,12.925,15.098,22.5,29.051,22.5s25.712-9.575,29.051-22.5h99.398C274.288,350.425,286.047,360,300,360    s25.712-9.575,29.051-22.5h16.898C349.288,350.425,361.047,360,375,360s25.712-9.575,29.051-22.5h16.898    C424.288,350.425,436.047,360,450,360c14.117,0,25.98-9.804,29.157-22.959H510v-15h-31.08C475.423,309.351,463.786,300,450,300    c-13.953,0-25.712,9.575-29.051,22.5h-16.898C400.712,309.575,388.953,300,375,300s-25.712,9.575-29.051,22.5h-16.898    C325.712,309.575,313.953,300,300,300s-25.712,9.575-29.051,22.5H172.5v-75H195v-15h-37.5v71.536    c-4.416-2.561-9.538-4.036-15-4.036c-13.953,0-25.712,9.575-29.051,22.5H52.5v-45h90v-15h-90v-45h269.074    c3.339,12.925,15.098,22.5,29.051,22.5s25.712-9.575,29.051-22.5h26.273C409.288,230.425,421.047,240,435,240    s25.712-9.575,29.051-22.5H510v-15h-45V127.5z M255,135c8.271,0,15,6.729,15,15s-6.729,15-15,15s-15-6.729-15-15    S246.729,135,255,135z M180,135c8.271,0,15,6.729,15,15s-6.729,15-15,15s-15-6.729-15-15S171.729,135,180,135z M105,135    c8.271,0,15,6.729,15,15s-6.729,15-15,15s-15-6.729-15-15S96.729,135,105,135z M37.5,382.5H15v-225h22.5V382.5z M450,315    c8.271,0,15,6.729,15,15s-6.729,15-15,15s-15-6.729-15-15S441.729,315,450,315z M375,315c8.271,0,15,6.729,15,15s-6.729,15-15,15    s-15-6.729-15-15S366.729,315,375,315z M300,315c8.271,0,15,6.729,15,15s-6.729,15-15,15s-15-6.729-15-15S291.729,315,300,315z     M142.5,315c8.271,0,15,6.729,15,15s-6.729,15-15,15s-15-6.729-15-15S134.229,315,142.5,315z M350.625,225    c-8.271,0-15-6.729-15-15s6.729-15,15-15s15,6.729,15,15S358.896,225,350.625,225z M435,225c-8.271,0-15-6.729-15-15    s6.729-15,15-15s15,6.729,15,15S443.271,225,435,225z"/>
		<rect x="187.5" y="262.5" width="322.5" height="15"/>
		<rect x="480" y="142.5" width="30" height="15"/>
	</g>
</g>















</svg>
